<svg xmlns="http://www.w3.org/2000/svg" xmlns:xlink="http://www.w3.org/1999/xlink" viewBox="0 0 205.14 269.28">
  <defs>
    <linearGradient id="Áåçûìÿííûé_ãðàäèåíò_4" data-name="Áåçûìÿííûé ãðàäèåíò 4" x1="-885.79" y1="271.75" x2="-1017.16" y2="199.7" gradientTransform="translate(1073.28 -40.13)" gradientUnits="userSpaceOnUse">
      <stop offset="0" stop-color="#180d5b"/>
      <stop offset="0.09" stop-color="#1a1660"/>
      <stop offset="0.25" stop-color="#1e2d6e"/>
      <stop offset="0.44" stop-color="#255385"/>
      <stop offset="0.66" stop-color="#2f87a5"/>
      <stop offset="0.9" stop-color="#3ccace"/>
      <stop offset="1" stop-color="#42e8e0"/>
    </linearGradient>
    <linearGradient id="Áåçûìÿííûé_ãðàäèåíò_59" data-name="Áåçûìÿííûé ãðàäèåíò 59" x1="-991.64" y1="249.11" x2="-900.27" y2="249.11" gradientTransform="translate(1073.28 -40.13)" gradientUnits="userSpaceOnUse">
      <stop offset="0" stop-color="#2b237c"/>
      <stop offset="1" stop-color="#180d5b"/>
    </linearGradient>
    <linearGradient id="Áåçûìÿííûé_ãðàäèåíò_122" data-name="Áåçûìÿííûé ãðàäèåíò 122" x1="-963.7" y1="271.08" x2="-1046.92" y2="223.77" gradientTransform="translate(1073.28 -40.13)" gradientUnits="userSpaceOnUse">
      <stop offset="0" stop-color="#180d5b"/>
      <stop offset="0.1" stop-color="#1a1560"/>
      <stop offset="0.25" stop-color="#1e2d6e"/>
      <stop offset="0.28" stop-color="#1f3372"/>
      <stop offset="0.38" stop-color="#22447c"/>
      <stop offset="0.57" stop-color="#2b7097"/>
      <stop offset="0.83" stop-color="#39b7c2"/>
      <stop offset="1" stop-color="#42e8e0"/>
    </linearGradient>
    <linearGradient id="Áåçûìÿííûé_ãðàäèåíò_4-2" x1="-927.78" y1="230.74" x2="-1034.98" y2="161.11" xlink:href="#Áåçûìÿííûé_ãðàäèåíò_4"/>
    <linearGradient id="Áåçûìÿííûé_ãðàäèåíò_59-2" x1="-991.64" y1="226.81" x2="-900.27" y2="226.81" xlink:href="#Áåçûìÿííûé_ãðàäèåíò_59"/>
    <linearGradient id="Áåçûìÿííûé_ãðàäèåíò_122-2" x1="-974.35" y1="242.6" x2="-1049.24" y2="200.38" xlink:href="#Áåçûìÿííûé_ãðàäèåíò_122"/>
    <linearGradient id="Áåçûìÿííûé_ãðàäèåíò_4-3" x1="-949.09" y1="207.87" x2="-1035.27" y2="188.4" xlink:href="#Áåçûìÿííûé_ãðàäèåíò_4"/>
    <linearGradient id="Áåçûìÿííûé_ãðàäèåíò_4-4" x1="-885.79" y1="229.74" x2="-1017.16" y2="157.7" xlink:href="#Áåçûìÿííûé_ãðàäèåíò_4"/>
    <linearGradient id="Áåçûìÿííûé_ãðàäèåíò_59-3" x1="-991.64" y1="207.1" x2="-900.27" y2="207.1" xlink:href="#Áåçûìÿííûé_ãðàäèåíò_59"/>
    <linearGradient id="Áåçûìÿííûé_ãðàäèåíò_122-3" x1="-963.7" y1="229.07" x2="-1046.92" y2="181.77" xlink:href="#Áåçûìÿííûé_ãðàäèåíò_122"/>
    <linearGradient id="Áåçûìÿííûé_ãðàäèåíò_4-5" x1="-927.78" y1="188.73" x2="-1034.98" y2="119.1" xlink:href="#Áåçûìÿííûé_ãðàäèåíò_4"/>
    <linearGradient id="Áåçûìÿííûé_ãðàäèåíò_59-4" x1="-991.64" y1="184.81" x2="-900.27" y2="184.81" xlink:href="#Áåçûìÿííûé_ãðàäèåíò_59"/>
    <linearGradient id="Áåçûìÿííûé_ãðàäèåíò_122-4" x1="-974.35" y1="200.59" x2="-1049.24" y2="158.37" xlink:href="#Áåçûìÿííûé_ãðàäèåíò_122"/>
    <linearGradient id="Áåçûìÿííûé_ãðàäèåíò_4-6" x1="-949.09" y1="165.86" x2="-1035.27" y2="146.4" xlink:href="#Áåçûìÿííûé_ãðàäèåíò_4"/>
    <linearGradient id="Áåçûìÿííûé_ãðàäèåíò_4-7" x1="-885.79" y1="187.74" x2="-1017.16" y2="115.69" xlink:href="#Áåçûìÿííûé_ãðàäèåíò_4"/>
    <linearGradient id="Áåçûìÿííûé_ãðàäèåíò_59-5" x1="-991.64" y1="165.1" x2="-900.27" y2="165.1" xlink:href="#Áåçûìÿííûé_ãðàäèåíò_59"/>
    <linearGradient id="Áåçûìÿííûé_ãðàäèåíò_122-5" x1="-963.7" y1="187.06" x2="-1046.92" y2="139.76" xlink:href="#Áåçûìÿííûé_ãðàäèåíò_122"/>
    <linearGradient id="Áåçûìÿííûé_ãðàäèåíò_4-8" x1="-927.78" y1="146.72" x2="-1034.98" y2="77.09" xlink:href="#Áåçûìÿííûé_ãðàäèåíò_4"/>
    <linearGradient id="Áåçûìÿííûé_ãðàäèåíò_59-6" x1="-991.64" y1="142.8" x2="-900.27" y2="142.8" xlink:href="#Áåçûìÿííûé_ãðàäèåíò_59"/>
    <linearGradient id="Áåçûìÿííûé_ãðàäèåíò_122-6" x1="-974.35" y1="158.58" x2="-1049.24" y2="116.36" xlink:href="#Áåçûìÿííûé_ãðàäèåíò_122"/>
    <linearGradient id="Áåçûìÿííûé_ãðàäèåíò_4-9" x1="-949.09" y1="123.85" x2="-1035.27" y2="104.39" xlink:href="#Áåçûìÿííûé_ãðàäèåíò_4"/>
    <linearGradient id="Áåçûìÿííûé_ãðàäèåíò_4-10" x1="-885.79" y1="145.73" x2="-1017.16" y2="73.68" xlink:href="#Áåçûìÿííûé_ãðàäèåíò_4"/>
    <linearGradient id="Áåçûìÿííûé_ãðàäèåíò_59-7" x1="-991.64" y1="123.09" x2="-900.27" y2="123.09" xlink:href="#Áåçûìÿííûé_ãðàäèåíò_59"/>
    <linearGradient id="Áåçûìÿííûé_ãðàäèåíò_122-7" x1="-963.7" y1="145.06" x2="-1046.92" y2="97.75" xlink:href="#Áåçûìÿííûé_ãðàäèåíò_122"/>
    <linearGradient id="Áåçûìÿííûé_ãðàäèåíò_4-11" x1="-927.78" y1="104.71" x2="-1034.98" y2="35.08" xlink:href="#Áåçûìÿííûé_ãðàäèåíò_4"/>
    <linearGradient id="Áåçûìÿííûé_ãðàäèåíò_59-8" x1="-991.64" y1="100.79" x2="-900.27" y2="100.79" xlink:href="#Áåçûìÿííûé_ãðàäèåíò_59"/>
    <linearGradient id="Áåçûìÿííûé_ãðàäèåíò_122-8" x1="-974.35" y1="116.57" x2="-1049.24" y2="74.35" xlink:href="#Áåçûìÿííûé_ãðàäèåíò_122"/>
    <linearGradient id="Áåçûìÿííûé_ãðàäèåíò_4-12" x1="-949.09" y1="81.84" x2="-1035.27" y2="62.38" xlink:href="#Áåçûìÿííûé_ãðàäèåíò_4"/>
  </defs>
  <title>baasdraasicon</title>
  <g style="isolation: isolate">
    <g id="Ñëîé_1" data-name="Ñëîé 1">
      <g>
        <path d="M456.62,309.41a15.86,15.86,0,0,1-7.8-1.8L357.74,255c-2-1.18-3.16-2.81-3.16-4.61,0-2.15,1.62-4.32,4.44-5.94l88.53-51.12c5.29-3.06,13.34-3.39,17.93-.73l91.09,52.58c2,1.18,3.15,2.81,3.15,4.61,0,2.15-1.61,4.32-4.43,6l-88.53,51.11A20.86,20.86,0,0,1,456.62,309.41ZM449,307.32c4.5,2.6,12.4,2.27,17.6-.74l88.53-51.11c2.71-1.56,4.26-3.63,4.26-5.65,0-1.67-1.06-3.2-3-4.31l-91.09-52.59c-4.5-2.59-12.39-2.26-17.59.74l-88.53,51.11c-2.71,1.57-4.27,3.63-4.27,5.65,0,1.67,1.06,3.2,3,4.31Z" transform="translate(-354.58 -40.13)" style="fill: #6ee8fc"/>
        <path d="M436.57,201a2,2,0,1,1-2-2A2,2,0,0,1,436.57,201Z" transform="translate(-354.58 -40.13)" style="fill: #6ee8fc"/>
        <path d="M367.25,241.1a2,2,0,1,1-2-2A2,2,0,0,1,367.25,241.1Z" transform="translate(-354.58 -40.13)" style="fill: #6ee8fc"/>
        <circle cx="161.16" cy="238.27" r="1.96" style="fill: #6ee8fc"/>
        <path d="M530.45,270.89a2,2,0,1,1-2-2A2,2,0,0,1,530.45,270.89Z" transform="translate(-354.58 -40.13)" style="fill: #6ee8fc"/>
        <circle cx="186.65" cy="223.36" r="1.96" style="fill: #6ee8fc"/>
      </g>
      <polygon points="102.89 247.58 39.48 210.98 102.88 174.37 166.28 210.98 102.89 247.58" style="opacity: 0.5"/>
      <g>
        <g>
          <g>
            <polygon points="102.89 232.74 38.97 195.84 102.88 158.94 166.8 195.84 102.89 232.74" style="fill: #312a91"/>
            <polygon points="102.89 222.12 38.97 185.22 102.88 148.32 166.8 185.22 102.89 222.12" style="fill: #312a91"/>
            <polygon points="102.89 213.71 53.54 185.22 102.88 156.73 152.23 185.22 102.89 213.71" style="opacity: 0.7000000000000001;mix-blend-mode: lighten;fill: url(#Áåçûìÿííûé_ãðàäèåíò_4)"/>
            <polygon points="166.8 185.22 166.8 195.84 102.89 232.74 102.89 222.12 166.8 185.22" style="fill: url(#Áåçûìÿííûé_ãðàäèåíò_59)"/>
            <polygon points="38.97 185.22 38.97 195.84 102.89 232.74 102.89 222.12 38.97 185.22" style="fill: #312a91"/>
            <polygon points="38.97 185.22 38.97 195.84 102.89 232.74 102.89 222.12 38.97 185.22" style="opacity: 0.7000000000000001;mix-blend-mode: lighten;fill: url(#Áåçûìÿííûé_ãðàäèåíò_122)"/>
            <polygon points="102.89 210.44 38.97 173.54 102.88 136.64 166.8 173.54 102.89 210.44" style="fill: #312a91"/>
            <polygon points="102.89 199.83 38.97 162.92 102.88 126.02 166.8 162.93 102.89 199.83" style="fill: #312a91"/>
            <polygon points="102.89 199.83 38.97 162.92 102.88 126.02 166.8 162.93 102.89 199.83" style="opacity: 0.7000000000000001;mix-blend-mode: lighten;fill: url(#Áåçûìÿííûé_ãðàäèåíò_4-2)"/>
            <g>
              <polygon points="102.89 176.59 79.22 162.93 102.88 149.26 126.55 162.93 102.89 176.59" style="fill: #42e8e0;opacity: 0.30000000000000004"/>
              <polygon points="102.88 158.54 118.52 167.56 126.55 162.93 102.88 149.26 79.22 162.93 87.25 167.56 102.88 158.54" style="fill: #42e8e0;opacity: 0.30000000000000004"/>
              <polygon points="102.88 158.54 118.52 167.56 126.55 162.93 102.88 149.26 79.22 162.93 87.25 167.56 102.88 158.54" style="fill: #42e8e0"/>
            </g>
            <polygon points="166.8 162.93 166.8 173.54 102.89 210.44 102.89 199.83 166.8 162.93" style="fill: url(#Áåçûìÿííûé_ãðàäèåíò_59-2)"/>
            <polygon points="38.97 162.92 38.97 173.54 102.89 210.44 102.89 199.83 38.97 162.92" style="fill: #312a91"/>
            <polygon points="38.97 162.92 38.97 173.54 102.89 210.44 102.89 199.83 38.97 162.92" style="opacity: 0.7000000000000001;mix-blend-mode: lighten;fill: url(#Áåçûìÿííûé_ãðàäèåíò_122-2)"/>
            <polygon points="102.89 210.44 102.89 222.12 38.97 185.22 38.97 173.54 102.89 210.44" style="fill: #42e8e0;opacity: 0.30000000000000004"/>
            <g>
              <polygon points="53.54 181.95 53.54 185.22 102.89 213.71 152.23 185.22 152.23 181.95 102.89 210.44 53.54 181.95" style="fill: #42e8e0;opacity: 0.30000000000000004"/>
              <polygon points="102.89 210.44 102.89 213.71 53.54 185.22 53.54 181.95 102.89 210.44" style="fill: #42e8e0;opacity: 0.30000000000000004"/>
            </g>
            <polygon points="38.97 173.54 38.97 185.22 102.89 222.12 166.8 185.22 166.8 173.54 102.89 210.44 38.97 173.54" style="fill: #5cfff3;opacity: 0.5"/>
            <polygon points="40.48 162.92 103.64 126.46 102.88 126.02 38.97 162.92 102.89 199.83 103.64 199.39 40.48 162.92" style="mix-blend-mode: lighten;fill: url(#Áåçûìÿííûé_ãðàäèåíò_4-3)"/>
          </g>
          <polygon points="38.97 173.54 38.97 185.22 39.85 185.73 39.85 174.05 38.97 173.54" style="fill: #42e8e0;opacity: 0.5"/>
          <polygon points="166.8 173.54 166.8 185.22 165.92 185.73 165.92 174.05 166.8 173.54" style="fill: #42e8e0;opacity: 0.5"/>
          <polygon points="102.89 210.44 102.89 210.44 101.38 209.57 101.38 221.26 102.89 222.12 102.89 222.12 102.89 222.12 102.89 222.12 102.89 222.12 104.39 221.26 104.39 209.57 102.89 210.44" style="fill: #42e8e0;opacity: 0.5"/>
        </g>
        <g>
          <g>
            <polygon points="102.89 190.73 38.97 153.83 102.88 116.93 166.8 153.83 102.89 190.73" style="fill: #312a91"/>
            <polygon points="102.89 180.12 38.97 143.22 102.88 106.31 166.8 143.22 102.89 180.12" style="fill: #312a91"/>
            <polygon points="102.89 171.71 53.54 143.22 102.88 114.72 152.23 143.22 102.89 171.71" style="opacity: 0.7000000000000001;mix-blend-mode: lighten;fill: url(#Áåçûìÿííûé_ãðàäèåíò_4-4)"/>
            <polygon points="166.8 143.22 166.8 153.83 102.89 190.73 102.89 180.12 166.8 143.22" style="fill: url(#Áåçûìÿííûé_ãðàäèåíò_59-3)"/>
            <polygon points="38.97 143.22 38.97 153.83 102.89 190.73 102.89 180.12 38.97 143.22" style="fill: #312a91"/>
            <polygon points="38.97 143.22 38.97 153.83 102.89 190.73 102.89 180.12 38.97 143.22" style="opacity: 0.7000000000000001;mix-blend-mode: lighten;fill: url(#Áåçûìÿííûé_ãðàäèåíò_122-3)"/>
            <polygon points="102.89 168.43 38.97 131.53 102.88 94.63 166.8 131.53 102.89 168.43" style="fill: #312a91"/>
            <polygon points="102.89 157.82 38.97 120.92 102.88 84.02 166.8 120.92 102.89 157.82" style="fill: #312a91"/>
            <polygon points="102.89 157.82 38.97 120.92 102.88 84.02 166.8 120.92 102.89 157.82" style="opacity: 0.7000000000000001;mix-blend-mode: lighten;fill: url(#Áåçûìÿííûé_ãðàäèåíò_4-5)"/>
            <g>
              <polygon points="102.89 134.58 79.22 120.92 102.88 107.25 126.55 120.92 102.89 134.58" style="fill: #42e8e0;opacity: 0.30000000000000004"/>
              <polygon points="102.88 116.53 118.52 125.55 126.55 120.92 102.88 107.25 79.22 120.92 87.25 125.55 102.88 116.53" style="fill: #42e8e0;opacity: 0.30000000000000004"/>
              <polygon points="102.88 116.53 118.52 125.55 126.55 120.92 102.88 107.25 79.22 120.92 87.25 125.55 102.88 116.53" style="fill: #42e8e0"/>
            </g>
            <polygon points="166.8 120.92 166.8 131.53 102.89 168.43 102.89 157.82 166.8 120.92" style="fill: url(#Áåçûìÿííûé_ãðàäèåíò_59-4)"/>
            <polygon points="38.97 120.92 38.97 131.53 102.89 168.43 102.89 157.82 38.97 120.92" style="fill: #312a91"/>
            <polygon points="38.97 120.92 38.97 131.53 102.89 168.43 102.89 157.82 38.97 120.92" style="opacity: 0.7000000000000001;mix-blend-mode: lighten;fill: url(#Áåçûìÿííûé_ãðàäèåíò_122-4)"/>
            <polygon points="102.89 168.43 102.89 180.12 38.97 143.22 38.97 131.53 102.89 168.43" style="fill: #42e8e0;opacity: 0.30000000000000004"/>
            <g>
              <polygon points="53.54 139.94 53.54 143.22 102.89 171.71 152.23 143.22 152.23 139.94 102.89 168.43 53.54 139.94" style="fill: #42e8e0;opacity: 0.30000000000000004"/>
              <polygon points="102.89 168.43 102.89 171.71 53.54 143.22 53.54 139.94 102.89 168.43" style="fill: #42e8e0;opacity: 0.30000000000000004"/>
            </g>
            <polygon points="38.97 131.53 38.97 143.22 102.89 180.12 166.8 143.22 166.8 131.53 102.89 168.43 38.97 131.53" style="fill: #5cfff3;opacity: 0.5"/>
            <polygon points="40.48 120.92 103.64 84.45 102.88 84.02 38.97 120.92 102.89 157.82 103.64 157.38 40.48 120.92" style="mix-blend-mode: lighten;fill: url(#Áåçûìÿííûé_ãðàäèåíò_4-6)"/>
          </g>
          <polygon points="38.97 131.53 38.97 143.22 39.85 143.72 39.85 132.04 38.97 131.53" style="fill: #42e8e0;opacity: 0.5"/>
          <polygon points="166.8 131.53 166.8 143.22 165.92 143.72 165.92 132.04 166.8 131.53" style="fill: #42e8e0;opacity: 0.5"/>
          <polygon points="102.89 168.43 102.89 168.43 101.38 167.56 101.38 179.26 102.89 180.12 102.89 180.12 102.89 180.12 102.89 180.12 102.89 180.12 104.39 179.26 104.39 167.56 102.89 168.43" style="fill: #42e8e0;opacity: 0.5"/>
        </g>
        <g>
          <g>
            <polygon points="102.89 148.72 38.97 111.82 102.88 74.92 166.8 111.82 102.89 148.72" style="fill: #312a91"/>
            <polygon points="102.89 138.11 38.97 101.21 102.88 64.31 166.8 101.21 102.89 138.11" style="fill: #312a91"/>
            <polygon points="102.89 129.7 53.54 101.21 102.88 72.72 152.23 101.21 102.89 129.7" style="opacity: 0.7000000000000001;mix-blend-mode: lighten;fill: url(#Áåçûìÿííûé_ãðàäèåíò_4-7)"/>
            <polygon points="166.8 101.21 166.8 111.82 102.89 148.72 102.89 138.11 166.8 101.21" style="fill: url(#Áåçûìÿííûé_ãðàäèåíò_59-5)"/>
            <polygon points="38.97 101.21 38.97 111.82 102.89 148.72 102.89 138.11 38.97 101.21" style="fill: #312a91"/>
            <polygon points="38.97 101.21 38.97 111.82 102.89 148.72 102.89 138.11 38.97 101.21" style="opacity: 0.7000000000000001;mix-blend-mode: lighten;fill: url(#Áåçûìÿííûé_ãðàäèåíò_122-5)"/>
            <polygon points="102.89 126.42 38.97 89.52 102.88 52.62 166.8 89.52 102.89 126.42" style="fill: #312a91"/>
            <polygon points="102.89 115.81 38.97 78.91 102.88 42.01 166.8 78.91 102.89 115.81" style="fill: #312a91"/>
            <polygon points="102.89 115.81 38.97 78.91 102.88 42.01 166.8 78.91 102.89 115.81" style="opacity: 0.7000000000000001;mix-blend-mode: lighten;fill: url(#Áåçûìÿííûé_ãðàäèåíò_4-8)"/>
            <g>
              <polygon points="102.89 92.57 79.22 78.91 102.88 65.25 126.55 78.91 102.89 92.57" style="fill: #42e8e0;opacity: 0.30000000000000004"/>
              <polygon points="102.88 74.52 118.52 83.55 126.55 78.91 102.88 65.25 79.22 78.91 87.25 83.55 102.88 74.52" style="fill: #42e8e0;opacity: 0.30000000000000004"/>
              <polygon points="102.88 74.52 118.52 83.55 126.55 78.91 102.88 65.25 79.22 78.91 87.25 83.55 102.88 74.52" style="fill: #42e8e0"/>
            </g>
            <polygon points="166.8 78.91 166.8 89.52 102.89 126.42 102.89 115.81 166.8 78.91" style="fill: url(#Áåçûìÿííûé_ãðàäèåíò_59-6)"/>
            <polygon points="38.97 78.91 38.97 89.52 102.89 126.42 102.89 115.81 38.97 78.91" style="fill: #312a91"/>
            <polygon points="38.97 78.91 38.97 89.52 102.89 126.42 102.89 115.81 38.97 78.91" style="opacity: 0.7000000000000001;mix-blend-mode: lighten;fill: url(#Áåçûìÿííûé_ãðàäèåíò_122-6)"/>
            <polygon points="102.89 126.42 102.89 138.11 38.97 101.21 38.97 89.52 102.89 126.42" style="fill: #42e8e0;opacity: 0.30000000000000004"/>
            <g>
              <polygon points="53.54 97.93 53.54 101.21 102.89 129.7 152.23 101.21 152.23 97.94 102.89 126.42 53.54 97.93" style="fill: #42e8e0;opacity: 0.30000000000000004"/>
              <polygon points="102.89 126.42 102.89 129.7 53.54 101.21 53.54 97.93 102.89 126.42" style="fill: #42e8e0;opacity: 0.30000000000000004"/>
            </g>
            <polygon points="38.97 89.52 38.97 101.21 102.89 138.11 166.8 101.21 166.8 89.52 102.89 126.42 38.97 89.52" style="fill: #5cfff3;opacity: 0.5"/>
            <polygon points="40.48 78.91 103.64 42.44 102.88 42.01 38.97 78.91 102.89 115.81 103.64 115.37 40.48 78.91" style="mix-blend-mode: lighten;fill: url(#Áåçûìÿííûé_ãðàäèåíò_4-9)"/>
          </g>
          <polygon points="38.97 89.52 38.97 101.21 39.85 101.71 39.85 90.03 38.97 89.52" style="fill: #42e8e0;opacity: 0.5"/>
          <polygon points="166.8 89.52 166.8 101.21 165.92 101.71 165.92 90.03 166.8 89.52" style="fill: #42e8e0;opacity: 0.5"/>
          <polygon points="102.89 126.42 102.89 126.42 101.38 125.55 101.38 137.25 102.89 138.11 102.89 138.11 102.89 138.11 102.89 138.11 102.89 138.11 104.39 137.25 104.39 125.55 102.89 126.42" style="fill: #42e8e0;opacity: 0.5"/>
        </g>
        <g>
          <g>
            <polygon points="102.89 106.72 38.97 69.81 102.88 32.91 166.8 69.81 102.89 106.72" style="fill: #312a91"/>
            <polygon points="102.89 96.1 38.97 59.2 102.88 22.3 166.8 59.2 102.89 96.1" style="fill: #312a91"/>
            <polygon points="102.89 87.69 53.54 59.2 102.88 30.71 152.23 59.2 102.89 87.69" style="opacity: 0.7000000000000001;mix-blend-mode: lighten;fill: url(#Áåçûìÿííûé_ãðàäèåíò_4-10)"/>
            <polygon points="166.8 59.2 166.8 69.81 102.89 106.72 102.89 96.1 166.8 59.2" style="fill: url(#Áåçûìÿííûé_ãðàäèåíò_59-7)"/>
            <polygon points="38.97 59.2 38.97 69.81 102.89 106.72 102.89 96.1 38.97 59.2" style="fill: #312a91"/>
            <polygon points="38.97 59.2 38.97 69.81 102.89 106.72 102.89 96.1 38.97 59.2" style="opacity: 0.7000000000000001;mix-blend-mode: lighten;fill: url(#Áåçûìÿííûé_ãðàäèåíò_122-7)"/>
            <polygon points="102.89 84.42 38.97 47.52 102.88 10.62 166.8 47.52 102.89 84.42" style="fill: #312a91"/>
            <polygon points="102.89 73.8 38.97 36.9 102.88 0 166.8 36.9 102.89 73.8" style="fill: #312a91"/>
            <polygon points="102.89 73.8 38.97 36.9 102.88 0 166.8 36.9 102.89 73.8" style="opacity: 0.7000000000000001;mix-blend-mode: lighten;fill: url(#Áåçûìÿííûé_ãðàäèåíò_4-11)"/>
            <polygon points="166.8 36.9 166.8 47.52 102.89 84.42 102.89 73.8 166.8 36.9" style="fill: url(#Áåçûìÿííûé_ãðàäèåíò_59-8)"/>
            <polygon points="38.97 36.9 38.97 47.52 102.89 84.42 102.89 73.8 38.97 36.9" style="fill: #312a91"/>
            <polygon points="38.97 36.9 38.97 47.52 102.89 84.42 102.89 73.8 38.97 36.9" style="opacity: 0.7000000000000001;mix-blend-mode: lighten;fill: url(#Áåçûìÿííûé_ãðàäèåíò_122-8)"/>
            <polygon points="102.89 84.42 102.89 96.1 38.97 59.2 38.97 47.52 102.89 84.42" style="fill: #42e8e0;opacity: 0.30000000000000004"/>
            <g>
              <polygon points="53.54 55.93 53.54 59.2 102.89 87.69 152.23 59.2 152.23 55.93 102.89 84.42 53.54 55.93" style="fill: #42e8e0;opacity: 0.30000000000000004"/>
              <polygon points="102.89 84.42 102.89 87.69 53.54 59.2 53.54 55.93 102.89 84.42" style="fill: #42e8e0;opacity: 0.30000000000000004"/>
            </g>
            <polygon points="38.97 47.52 38.97 59.2 102.89 96.1 166.8 59.2 166.8 47.52 102.89 84.42 38.97 47.52" style="fill: #5cfff3;opacity: 0.5"/>
            <polygon points="40.48 36.9 103.64 0.44 102.88 0 38.97 36.9 102.89 73.8 103.64 73.37 40.48 36.9" style="mix-blend-mode: lighten;fill: url(#Áåçûìÿííûé_ãðàäèåíò_4-12)"/>
          </g>
          <polygon points="38.97 47.52 38.97 59.2 39.85 59.71 39.85 48.02 38.97 47.52" style="fill: #42e8e0;opacity: 0.5"/>
          <polygon points="166.8 47.52 166.8 59.2 165.92 59.71 165.92 48.02 166.8 47.52" style="fill: #42e8e0;opacity: 0.5"/>
          <polygon points="102.89 84.42 102.89 84.42 101.38 83.55 101.38 95.24 102.89 96.1 102.89 96.1 102.89 96.1 102.89 96.1 102.89 96.1 104.39 95.24 104.39 83.55 102.89 84.42" style="fill: #42e8e0;opacity: 0.5"/>
        </g>
      </g>
      <g>
        <path d="M454.36,78.83a.89.89,0,0,1,0,1.69,3.24,3.24,0,0,1-2.94,0,.89.89,0,0,1,0-1.69A3.24,3.24,0,0,1,454.36,78.83Z" transform="translate(-354.58 -40.13)" style="fill: #5cfff3;opacity: 0.2"/>
        <path d="M458.93,76.18a.89.89,0,0,1,0,1.7,3.22,3.22,0,0,1-2.93,0,.89.89,0,0,1,0-1.7A3.28,3.28,0,0,1,458.93,76.18Z" transform="translate(-354.58 -40.13)" style="fill: #5cfff3;opacity: 0.6000000000000001"/>
        <path d="M463.51,73.54a.9.9,0,0,1,0,1.7,3.24,3.24,0,0,1-2.94,0,.9.9,0,0,1,0-1.7A3.24,3.24,0,0,1,463.51,73.54Z" transform="translate(-354.58 -40.13)" style="fill: #5cfff3"/>
      </g>
    </g>
  </g>
</svg>
