<svg xmlns="http://www.w3.org/2000/svg" viewBox="0 0 649.61 758.38">
  <title>infrastructuresupport</title>
  <g style="isolation: isolate">
    <g id="image">
      <path d="M1265.46,805.05,980.4,643.57c-3.3-1.87-3.07-5.26.5-7.53l128.15-81.49c3.57-2.27,9.19-2.6,12.49-.73L1406.61,715.3c3.29,1.86,3.07,5.25-.5,7.53L1278,804.32C1274.38,806.59,1268.76,806.92,1265.46,805.05Z" transform="translate(-759.33 -152.07)" style="fill: #a8c4e5;opacity: 0.4;mix-blend-mode: multiply"/>
      <path d="M881.37,525.62c-21.2-3.19-38.47,13-43.54-17.54l1.88-.45c3.21-4.38,10.79-2.84,12.67.66,3,5.64,8.94,7.52,17.49,6.47,2.56-.31-1.56,4.32-.16,6.49Z" transform="translate(-759.33 -152.07)" style="fill: #2a174a"/>
      <path d="M1306.82,283.8l-224-129.31c-4.55-2.19-19.14-4.66-29.12,1.34L923.35,225.52,1062,376.24l16.87,397c0,8.8,27.45,21.92,34.05,25.72,0,0,21-3.88,49.32-9.43l7.45,88.7,127.64-84.88a35.68,35.68,0,0,0,15.92-29.71V753.08l5.53-446.45C1318.77,297.83,1313.42,287.61,1306.82,283.8Z" transform="translate(-759.33 -152.07)" style="fill: #1d2a59"/>
      <path d="M1154.93,876.89a17.63,17.63,0,0,0,26.45-15.26V381.25c0-8.8-5.35-19-12-22.83L936.54,224c-6.6-3.81-11.95.23-11.95,9V729.53a24.9,24.9,0,0,0,12.46,21.57Z" transform="translate(-759.33 -152.07)" style="fill: #46a4f0"/>
      <ellipse cx="873.59" cy="873.29" rx="37.16" ry="64.36" transform="translate(-763.76 1590.06) rotate(-89.69)" style="fill: #161318;opacity: 0.4;mix-blend-mode: multiply"/>
      <path d="M1149.79,878.94a17.64,17.64,0,0,0,26.45-15.27V383.29c0-8.8-5.35-19-12-22.83L931.4,226c-6.59-3.81-11.94.23-11.94,9V731.58a24.89,24.89,0,0,0,12.45,21.56Z" transform="translate(-759.33 -152.07)" style="fill: #467de4"/>
      <path d="M1119.23,861.3a31.3,31.3,0,0,0,47-27.11V427c0-7.79-4.74-16.84-10.58-20.22L950.38,288.3c-5.85-3.37-10.59.21-10.59,8V731.5a45.36,45.36,0,0,0,22.69,39.29Z" transform="translate(-759.33 -152.07)" style="fill: #4056a8"/>
      <path d="M968.7,361.52l177.64,102.56c2.41,1.39,4.36-.08,4.36-3.29V429.13c0-3.21-2-6.94-4.36-8.33L968.7,318.24c-2.41-1.39-4.36.08-4.36,3.3v31.65C964.34,356.4,966.29,360.13,968.7,361.52Z" transform="translate(-759.33 -152.07)" style="fill: #4873c9"/>
      <path d="M1043,395.82l102,58.88c.67.38,1.21-.16,1.21-1.22V431.17a3.25,3.25,0,0,0-1.21-2.61l-89.59-51.72a3,3,0,0,0-4.36.93l-9.12,13.94C1041.18,392.75,1041.82,395.16,1043,395.82Z" transform="translate(-759.33 -152.07)" style="fill: #46a4f0"/>
      <path d="M1020.29,384.53l.21.13c.74.42,1.34,0,1.34-1V358a3.21,3.21,0,0,0-1.34-2.56l-.21-.12c-.74-.43-1.34,0-1.34,1V382A3.19,3.19,0,0,0,1020.29,384.53Z" transform="translate(-759.33 -152.07)" style="fill: #46a4f0"/>
      <path d="M1012.92,380.28l.21.12c.74.43,1.34,0,1.34-1V353.72a3.21,3.21,0,0,0-1.34-2.56l-.21-.12c-.74-.42-1.34,0-1.34,1v25.67A3.21,3.21,0,0,0,1012.92,380.28Z" transform="translate(-759.33 -152.07)" style="fill: #46a4f0"/>
      <path d="M1005.55,376l.21.12c.74.43,1.34,0,1.34-1V349.46a3.19,3.19,0,0,0-1.34-2.55l-.21-.12c-.74-.43-1.34,0-1.34,1v25.67A3.19,3.19,0,0,0,1005.55,376Z" transform="translate(-759.33 -152.07)" style="fill: #46a4f0"/>
      <path d="M998.18,371.77l.21.12c.74.42,1.33,0,1.33-1V345.21a3.2,3.2,0,0,0-1.33-2.56l-.21-.12c-.74-.43-1.34,0-1.34,1v25.67A3.21,3.21,0,0,0,998.18,371.77Z" transform="translate(-759.33 -152.07)" style="fill: #46a4f0"/>
      <path d="M990.81,367.51l.21.12c.73.43,1.33,0,1.33-1V341A3.21,3.21,0,0,0,991,338.4l-.21-.13c-.74-.42-1.34,0-1.34,1V365A3.2,3.2,0,0,0,990.81,367.51Z" transform="translate(-759.33 -152.07)" style="fill: #46a4f0"/>
      <path d="M983.44,363.26l.2.12c.74.42,1.34,0,1.34-1V336.7a3.21,3.21,0,0,0-1.34-2.56l-.2-.12c-.74-.43-1.34,0-1.34,1V360.7A3.22,3.22,0,0,0,983.44,363.26Z" transform="translate(-759.33 -152.07)" style="fill: #46a4f0"/>
      <path d="M968.7,452.59l177.64,102.56c2.41,1.39,4.36-.09,4.36-3.3V520.19c0-3.21-2-6.94-4.36-8.33L968.7,409.3c-2.41-1.39-4.36.09-4.36,3.3v31.65C964.34,447.47,966.29,451.2,968.7,452.59Z" transform="translate(-759.33 -152.07)" style="fill: #4873c9"/>
      <path d="M1043,486.88l102,58.88c.67.38,1.21-.16,1.21-1.21V522.23a3.23,3.23,0,0,0-1.21-2.6l-89.59-51.73a3,3,0,0,0-4.36.93l-9.12,13.94C1041.18,483.81,1041.82,486.23,1043,486.88Z" transform="translate(-759.33 -152.07)" style="fill: #46a4f0"/>
      <path d="M1020.29,475.6l.21.12c.74.43,1.34,0,1.34-1V449a3.21,3.21,0,0,0-1.34-2.56l-.21-.12c-.74-.43-1.34,0-1.34,1V473A3.21,3.21,0,0,0,1020.29,475.6Z" transform="translate(-759.33 -152.07)" style="fill: #46a4f0"/>
      <path d="M1012.92,471.34l.21.12c.74.43,1.34,0,1.34-1V444.78a3.19,3.19,0,0,0-1.34-2.55l-.21-.12c-.74-.43-1.34,0-1.34,1v25.67A3.19,3.19,0,0,0,1012.92,471.34Z" transform="translate(-759.33 -152.07)" style="fill: #46a4f0"/>
      <path d="M1005.55,467.09l.21.12c.74.42,1.34,0,1.34-1V440.53a3.21,3.21,0,0,0-1.34-2.56l-.21-.12c-.74-.43-1.34,0-1.34,1v25.67A3.21,3.21,0,0,0,1005.55,467.09Z" transform="translate(-759.33 -152.07)" style="fill: #46a4f0"/>
      <path d="M998.18,462.83l.21.12c.74.43,1.33,0,1.33-1V436.27a3.21,3.21,0,0,0-1.33-2.56l-.21-.12c-.74-.42-1.34,0-1.34,1v25.66A3.21,3.21,0,0,0,998.18,462.83Z" transform="translate(-759.33 -152.07)" style="fill: #46a4f0"/>
      <path d="M990.81,458.58l.21.12c.73.42,1.33,0,1.33-1V432a3.23,3.23,0,0,0-1.33-2.56l-.21-.12c-.74-.43-1.34,0-1.34,1V456A3.22,3.22,0,0,0,990.81,458.58Z" transform="translate(-759.33 -152.07)" style="fill: #46a4f0"/>
      <path d="M983.44,454.32l.2.12c.74.43,1.34,0,1.34-1V427.76a3.21,3.21,0,0,0-1.34-2.56l-.2-.12c-.74-.42-1.34,0-1.34,1v25.67A3.21,3.21,0,0,0,983.44,454.32Z" transform="translate(-759.33 -152.07)" style="fill: #46a4f0"/>
      <path d="M968.7,543.65l177.64,102.56c2.41,1.39,4.36-.09,4.36-3.3V611.26c0-3.21-2-7-4.36-8.34L968.7,500.37c-2.41-1.4-4.36.08-4.36,3.29v31.66C964.34,538.53,966.29,542.26,968.7,543.65Z" transform="translate(-759.33 -152.07)" style="fill: #4873c9"/>
      <path d="M1043,577.94l102,58.88c.67.39,1.21-.16,1.21-1.21V613.29a3.23,3.23,0,0,0-1.21-2.6L1055.34,559a3,3,0,0,0-4.36.94l-9.12,13.94C1041.18,574.87,1041.82,577.29,1043,577.94Z" transform="translate(-759.33 -152.07)" style="fill: #46a4f0"/>
      <path d="M1020.29,566.66l.21.12c.74.43,1.34,0,1.34-1V540.1a3.19,3.19,0,0,0-1.34-2.55l-.21-.12c-.74-.43-1.34,0-1.34,1v25.67A3.19,3.19,0,0,0,1020.29,566.66Z" transform="translate(-759.33 -152.07)" style="fill: #46a4f0"/>
      <path d="M1012.92,562.41l.21.12c.74.42,1.34,0,1.34-1V535.85a3.21,3.21,0,0,0-1.34-2.56l-.21-.12c-.74-.43-1.34,0-1.34,1v25.67A3.22,3.22,0,0,0,1012.92,562.41Z" transform="translate(-759.33 -152.07)" style="fill: #46a4f0"/>
      <path d="M1005.55,558.15l.21.12c.74.43,1.34,0,1.34-1V531.59a3.22,3.22,0,0,0-1.34-2.56l-.21-.12c-.74-.42-1.34,0-1.34,1v25.67A3.21,3.21,0,0,0,1005.55,558.15Z" transform="translate(-759.33 -152.07)" style="fill: #46a4f0"/>
      <path d="M998.18,553.89l.21.12c.74.43,1.33,0,1.33-1V527.33a3.18,3.18,0,0,0-1.33-2.55l-.21-.12c-.74-.43-1.34,0-1.34,1v25.67A3.19,3.19,0,0,0,998.18,553.89Z" transform="translate(-759.33 -152.07)" style="fill: #46a4f0"/>
      <path d="M990.81,549.64l.21.12c.73.43,1.33,0,1.33-1V523.08a3.23,3.23,0,0,0-1.33-2.56l-.21-.12c-.74-.42-1.34,0-1.34,1v25.67A3.21,3.21,0,0,0,990.81,549.64Z" transform="translate(-759.33 -152.07)" style="fill: #46a4f0"/>
      <path d="M983.44,545.38l.2.12c.74.43,1.34,0,1.34-1V518.82a3.19,3.19,0,0,0-1.34-2.55l-.2-.12c-.74-.43-1.34,0-1.34,1v25.67A3.19,3.19,0,0,0,983.44,545.38Z" transform="translate(-759.33 -152.07)" style="fill: #46a4f0"/>
      <path d="M968.7,634.72l177.64,102.55c2.41,1.39,4.36-.08,4.36-3.29V702.32c0-3.21-2-6.94-4.36-8.33L968.7,591.43c-2.41-1.39-4.36.08-4.36,3.3v31.65C964.34,629.59,966.29,633.32,968.7,634.72Z" transform="translate(-759.33 -152.07)" style="fill: #4873c9"/>
      <path d="M1043,669l102,58.88c.67.38,1.21-.16,1.21-1.22V704.36a3.25,3.25,0,0,0-1.21-2.61L1055.34,650a3,3,0,0,0-4.36.93l-9.12,13.94C1041.18,665.94,1041.82,668.35,1043,669Z" transform="translate(-759.33 -152.07)" style="fill: #46a4f0"/>
      <path d="M1020.29,657.73l.21.12c.74.42,1.34,0,1.34-1V631.17a3.21,3.21,0,0,0-1.34-2.56l-.21-.12c-.74-.43-1.34,0-1.34,1v25.67A3.22,3.22,0,0,0,1020.29,657.73Z" transform="translate(-759.33 -152.07)" style="fill: #46a4f0"/>
      <path d="M1012.92,653.47l.21.12c.74.43,1.34,0,1.34-1V626.91a3.21,3.21,0,0,0-1.34-2.56l-.21-.12c-.74-.42-1.34,0-1.34,1v25.67A3.21,3.21,0,0,0,1012.92,653.47Z" transform="translate(-759.33 -152.07)" style="fill: #46a4f0"/>
      <path d="M1005.55,649.21l.21.12c.74.43,1.34,0,1.34-1V622.65a3.19,3.19,0,0,0-1.34-2.55l-.21-.12c-.74-.43-1.34,0-1.34,1v25.67A3.19,3.19,0,0,0,1005.55,649.21Z" transform="translate(-759.33 -152.07)" style="fill: #46a4f0"/>
      <path d="M998.18,645l.21.12c.74.42,1.33,0,1.33-1V618.4a3.2,3.2,0,0,0-1.33-2.56l-.21-.12c-.74-.43-1.34,0-1.34,1V642.4A3.21,3.21,0,0,0,998.18,645Z" transform="translate(-759.33 -152.07)" style="fill: #46a4f0"/>
      <path d="M990.81,640.7l.21.12c.73.43,1.33,0,1.33-1V614.14a3.21,3.21,0,0,0-1.33-2.55l-.21-.12c-.74-.43-1.34,0-1.34,1v25.67A3.19,3.19,0,0,0,990.81,640.7Z" transform="translate(-759.33 -152.07)" style="fill: #46a4f0"/>
      <path d="M983.44,636.45l.2.12c.74.42,1.34,0,1.34-1V609.89a3.21,3.21,0,0,0-1.34-2.56l-.2-.12c-.74-.43-1.34,0-1.34,1v25.67A3.21,3.21,0,0,0,983.44,636.45Z" transform="translate(-759.33 -152.07)" style="fill: #46a4f0"/>
      <path d="M968.7,725.78l177.64,102.56c2.41,1.39,4.36-.09,4.36-3.3V793.38c0-3.21-2-6.94-4.36-8.33L968.7,682.49c-2.41-1.39-4.36.09-4.36,3.3v31.65C964.34,720.66,966.29,724.39,968.7,725.78Z" transform="translate(-759.33 -152.07)" style="fill: #4873c9"/>
      <path d="M1043,760.07l102,58.88c.67.38,1.21-.16,1.21-1.21V795.42a3.23,3.23,0,0,0-1.21-2.6l-89.59-51.73a3,3,0,0,0-4.36.93L1041.86,756C1041.18,757,1041.82,759.42,1043,760.07Z" transform="translate(-759.33 -152.07)" style="fill: #46a4f0"/>
      <path d="M1020.29,748.79l.21.12c.74.43,1.34,0,1.34-1V722.23a3.21,3.21,0,0,0-1.34-2.56l-.21-.12c-.74-.42-1.34,0-1.34,1v25.67A3.21,3.21,0,0,0,1020.29,748.79Z" transform="translate(-759.33 -152.07)" style="fill: #46a4f0"/>
      <path d="M1012.92,744.53l.21.12c.74.43,1.34,0,1.34-1V718a3.19,3.19,0,0,0-1.34-2.55l-.21-.12c-.74-.43-1.34,0-1.34,1V742A3.19,3.19,0,0,0,1012.92,744.53Z" transform="translate(-759.33 -152.07)" style="fill: #46a4f0"/>
      <path d="M1005.55,740.28l.21.12c.74.42,1.34,0,1.34-1V713.72a3.21,3.21,0,0,0-1.34-2.56l-.21-.12c-.74-.43-1.34,0-1.34,1v25.67A3.21,3.21,0,0,0,1005.55,740.28Z" transform="translate(-759.33 -152.07)" style="fill: #46a4f0"/>
      <path d="M998.18,736l.21.12c.74.43,1.33,0,1.33-1V709.46a3.18,3.18,0,0,0-1.33-2.55l-.21-.13c-.74-.42-1.34,0-1.34,1v25.66A3.21,3.21,0,0,0,998.18,736Z" transform="translate(-759.33 -152.07)" style="fill: #46a4f0"/>
      <path d="M990.81,731.77l.21.12c.73.42,1.33,0,1.33-1V705.21a3.23,3.23,0,0,0-1.33-2.56l-.21-.12c-.74-.43-1.34,0-1.34,1v25.67A3.22,3.22,0,0,0,990.81,731.77Z" transform="translate(-759.33 -152.07)" style="fill: #46a4f0"/>
      <path d="M983.44,727.51l.2.12c.74.43,1.34,0,1.34-1V701a3.21,3.21,0,0,0-1.34-2.56l-.2-.12c-.74-.42-1.34,0-1.34,1V725A3.21,3.21,0,0,0,983.44,727.51Z" transform="translate(-759.33 -152.07)" style="fill: #46a4f0"/>
      <path d="M952.31,278.63l204.5,118.07c3.57,2.06,6.46-.13,6.46-4.88v-6.95c0-4.76-2.89-10.28-6.46-12.34L952.31,254.46c-3.56-2.05-6.45.13-6.45,4.88v7C945.86,271.05,948.75,276.57,952.31,278.63Z" transform="translate(-759.33 -152.07)" style="fill: #46a4f0"/>
      <path d="M1028.42,373.38a10.23,10.23,0,0,0,4.64,8c2.57,1.48,4.65.3,4.65-2.64a10.21,10.21,0,0,0-4.65-8C1030.5,369.25,1028.42,370.43,1028.42,373.38Z" transform="translate(-759.33 -152.07)" style="fill: #ebf0ff"/>
      <path d="M964.34,373.26a10.24,10.24,0,0,0,4.64,8c2.57,1.48,4.64.3,4.64-2.65a10.2,10.2,0,0,0-4.64-8C966.42,369.14,964.34,370.32,964.34,373.26Z" transform="translate(-759.33 -152.07)" style="fill: #ea74ff"/>
      <path d="M964.34,394.48a10.24,10.24,0,0,0,4.64,8c2.57,1.48,4.64.29,4.64-2.65a10.22,10.22,0,0,0-4.64-8C966.42,390.35,964.34,391.54,964.34,394.48Z" transform="translate(-759.33 -152.07)" style="fill: #71ead3"/>
      <path d="M1139.48,474.38a10.23,10.23,0,0,0,4.65,8c2.56,1.48,4.64.29,4.64-2.65a10.26,10.26,0,0,0-4.64-8C1141.56,470.25,1139.48,471.44,1139.48,474.38Z" transform="translate(-759.33 -152.07)" style="fill: #46a4f0"/>
      <path d="M1139.48,495.6a10.23,10.23,0,0,0,4.65,8c2.56,1.48,4.64.29,4.64-2.65a10.24,10.24,0,0,0-4.64-8C1141.56,491.47,1139.48,492.66,1139.48,495.6Z" transform="translate(-759.33 -152.07)" style="fill: #46a4f0"/>
      <path d="M1028.42,463.41a10.24,10.24,0,0,0,4.64,8c2.57,1.48,4.65.29,4.65-2.65a10.23,10.23,0,0,0-4.65-8C1030.5,459.28,1028.42,460.47,1028.42,463.41Z" transform="translate(-759.33 -152.07)" style="fill: #ebf0ff"/>
      <path d="M964.34,463.3a10.23,10.23,0,0,0,4.64,8c2.57,1.48,4.64.3,4.64-2.64a10.22,10.22,0,0,0-4.64-8C966.42,459.17,964.34,460.36,964.34,463.3Z" transform="translate(-759.33 -152.07)" style="fill: #ea74ff"/>
      <path d="M964.34,484.51a10.23,10.23,0,0,0,4.64,8c2.57,1.48,4.64.3,4.64-2.65a10.2,10.2,0,0,0-4.64-8C966.42,480.39,964.34,481.57,964.34,484.51Z" transform="translate(-759.33 -152.07)" style="fill: #71ead3"/>
      <path d="M1139.48,564.42a10.21,10.21,0,0,0,4.65,8c2.56,1.48,4.64.3,4.64-2.64a10.23,10.23,0,0,0-4.64-8C1141.56,560.29,1139.48,561.47,1139.48,564.42Z" transform="translate(-759.33 -152.07)" style="fill: #46a4f0"/>
      <path d="M1139.48,585.63a10.21,10.21,0,0,0,4.65,8c2.56,1.48,4.64.3,4.64-2.65a10.23,10.23,0,0,0-4.64-8C1141.56,581.51,1139.48,582.69,1139.48,585.63Z" transform="translate(-759.33 -152.07)" style="fill: #46a4f0"/>
      <path d="M1028.42,553.44a10.23,10.23,0,0,0,4.64,8c2.57,1.48,4.65.3,4.65-2.65a10.21,10.21,0,0,0-4.65-8C1030.5,549.32,1028.42,550.5,1028.42,553.44Z" transform="translate(-759.33 -152.07)" style="fill: #ebf0ff"/>
      <path d="M964.34,553.33a10.24,10.24,0,0,0,4.64,8c2.57,1.48,4.64.29,4.64-2.65a10.2,10.2,0,0,0-4.64-8C966.42,549.2,964.34,550.39,964.34,553.33Z" transform="translate(-759.33 -152.07)" style="fill: #ea74ff"/>
      <path d="M964.34,574.55a10.24,10.24,0,0,0,4.64,8c2.57,1.48,4.64.29,4.64-2.65a10.22,10.22,0,0,0-4.64-8C966.42,570.42,964.34,571.61,964.34,574.55Z" transform="translate(-759.33 -152.07)" style="fill: #71ead3"/>
      <path d="M1139.48,654.45a10.23,10.23,0,0,0,4.65,8c2.56,1.48,4.64.29,4.64-2.65a10.24,10.24,0,0,0-4.64-8C1141.56,650.32,1139.48,651.51,1139.48,654.45Z" transform="translate(-759.33 -152.07)" style="fill: #46a4f0"/>
      <path d="M1139.48,675.67a10.21,10.21,0,0,0,4.65,8c2.56,1.48,4.64.3,4.64-2.64a10.24,10.24,0,0,0-4.64-8C1141.56,671.54,1139.48,672.73,1139.48,675.67Z" transform="translate(-759.33 -152.07)" style="fill: #46a4f0"/>
      <path d="M1028.42,643.48a10.24,10.24,0,0,0,4.64,8c2.57,1.48,4.65.29,4.65-2.65a10.23,10.23,0,0,0-4.65-8C1030.5,639.35,1028.42,640.54,1028.42,643.48Z" transform="translate(-759.33 -152.07)" style="fill: #ebf0ff"/>
      <path d="M964.34,643.37a10.23,10.23,0,0,0,4.64,8c2.57,1.48,4.64.3,4.64-2.64a10.2,10.2,0,0,0-4.64-8C966.42,639.24,964.34,640.42,964.34,643.37Z" transform="translate(-759.33 -152.07)" style="fill: #ea74ff"/>
      <path d="M964.34,664.58a10.23,10.23,0,0,0,4.64,8c2.57,1.48,4.64.3,4.64-2.65a10.2,10.2,0,0,0-4.64-8C966.42,660.46,964.34,661.64,964.34,664.58Z" transform="translate(-759.33 -152.07)" style="fill: #71ead3"/>
      <path d="M1139.48,744.49a10.21,10.21,0,0,0,4.65,8c2.56,1.48,4.64.3,4.64-2.64a10.23,10.23,0,0,0-4.64-8C1141.56,740.36,1139.48,741.54,1139.48,744.49Z" transform="translate(-759.33 -152.07)" style="fill: #46a4f0"/>
      <ellipse cx="1144.13" cy="768.38" rx="3.78" ry="6.54" transform="translate(-990.72 530.4) rotate(-30.31)" style="fill: #46a4f0"/>
      <path d="M1028.42,733.51a10.24,10.24,0,0,0,4.64,8c2.57,1.48,4.65.3,4.65-2.65a10.21,10.21,0,0,0-4.65-8C1030.5,729.39,1028.42,730.57,1028.42,733.51Z" transform="translate(-759.33 -152.07)" style="fill: #ebf0ff"/>
      <path d="M964.34,733.4a10.24,10.24,0,0,0,4.64,8c2.57,1.48,4.64.29,4.64-2.65a10.22,10.22,0,0,0-4.64-8C966.42,729.27,964.34,730.46,964.34,733.4Z" transform="translate(-759.33 -152.07)" style="fill: #ea74ff"/>
      <path d="M964.34,754.62a10.23,10.23,0,0,0,4.64,8c2.57,1.48,4.64.3,4.64-2.64a10.22,10.22,0,0,0-4.64-8C966.42,750.49,964.34,751.68,964.34,754.62Z" transform="translate(-759.33 -152.07)" style="fill: #71ead3"/>
      <g>
        <polygon points="224.65 538.28 71.32 449.75 180.07 386.96 333.41 475.49 224.65 538.28" style="fill: #162c66"/>
        <polygon points="71.32 436.66 71.32 449.75 333.41 462.4 333.41 475.49 71.32 436.66" style="fill: #162c66"/>
        <polygon points="224.65 525.19 71.32 436.66 180.07 373.87 333.41 462.4 224.65 525.19" style="fill: #4056a8"/>
        <polygon points="224.65 525.19 71.32 436.66 180.07 373.87 333.41 462.4 224.65 525.19" style="fill: #4056a8"/>
        <polygon points="224.65 529.63 71.32 441.1 180.07 378.31 333.41 466.84 224.65 529.63" style="fill: #4056a8"/>
      </g>
      <g>
        <path d="M1009.3,623.34l-92.08-53.16c-1.07-.61-.93-1.7.3-2.41l44.12-25.47a4.69,4.69,0,0,1,4.18-.18l92.08,53.17c1.06.61.93,1.7-.3,2.41l-44.12,25.47A4.65,4.65,0,0,1,1009.3,623.34Z" transform="translate(-759.33 -152.07)" style="fill: #a8c4e5;opacity: 0.4;mix-blend-mode: multiply"/>
        <path d="M1044,547.74h0a.31.31,0,0,0,0-.1v-.12h0s0,0,0-.07a.34.34,0,0,0,0-.1v-.1s0-.07,0-.1,0-.06,0-.09h0a.36.36,0,0,1,0-.1l0-.1v0l0-.06,0-.09a.19.19,0,0,1,0-.07h0l0-.09a.36.36,0,0,1,0-.09v-.08a.36.36,0,0,1,0-.09l0-.09h0v0a.41.41,0,0,0,0-.09s0,0,0-.08l0-.06,0,0-.08-.14,0,0h0l-.12-.16,0,0v0l0-.06-.08-.09,0,0,0,0,0,0-.08-.08-.05-.06h0l-.08-.08-.09-.08h0l-.08-.07-.09-.07h0l-.06,0-.09-.07h0l0,0-.1,0-.49-.29-2.73,1.48.68.39.09.06.09.07.09.07,0,0,.14.11h0l.14.13v0l.13.13v0l.12.14,0,0,.11.14,0,.07.06.1.07.1s0,.05,0,.08a.21.21,0,0,1,0,.06l.06.11,0,0,.08.16v0s0,.11.08.17h0c0,.06,0,.12.07.17v0l0,.17v0l0,.16v0l0,.17v0c0,.06,0,.11,0,.17v0c0,.06,0,.12,0,.17v.29a.41.41,0,0,1,0,.11.45.45,0,0,1,0,.11s0,.06,0,.08l0,.16L1031.87,608c0,.28-1.12,2.05-.88,1.91l2.58-2.18a3.09,3.09,0,0,0,1-1.81l9.24-57.12.11-.7s0,0,0-.08V548h0v-.13a.22.22,0,0,1,0-.08Z" transform="translate(-759.33 -152.07)" style="fill: #a1bbda"/>
        <path d="M1039.51,546a3.88,3.88,0,0,1,1.84,3.64l-9.56,59.06c-.21,1.31-1.37,1.79-2.6,1.08l-90.45-52.23a3.85,3.85,0,0,1-1.85-3.63l9.56-59.07a1.59,1.59,0,0,1,2.6-1.07Z" transform="translate(-759.33 -152.07)" style="fill: #fff"/>
        <path d="M1042.64,537.33,953,485.57h0l-.13-.08h0l-.24-.13-.09-.05-.09,0-.1,0-.1,0-.09,0-.11,0h0l-.09,0h-.67l-.18.05h0l-.22.1-2.63,1.53.21-.09.09,0,.1,0,.13,0H949l.19,0h0l.21,0h0l.21.07h0l.23.1.09.05.07,0,.5.28h0l89.79,51.85a.32.32,0,0,0,.33,0l2-1.15A.33.33,0,0,0,1042.64,537.33Zm-90.54-51.6Z" transform="translate(-759.33 -152.07)" style="fill: #e5e5e5"/>
        <path d="M1045.07,540.86h0v-.1a.31.31,0,0,0,0-.1v0h0v-.07s0-.07,0-.1v-.1a.36.36,0,0,0,0-.1.29.29,0,0,0,0-.09h0a.36.36,0,0,0,0-.1l0-.1v0h0v-.06l0-.09,0-.07h0l0-.09,0-.09,0,0v-.05l0-.09,0-.09h0l-.05-.09a.56.56,0,0,0,0-.08l0-.06,0,0-.08-.13,0,0h0l-.12-.16v0l0,0,0,0-.07-.09,0,0v0l0,0-.07-.08-.06-.06h0l-.08-.08-.08-.08h0a.27.27,0,0,0-.08-.07l-.09-.08h0l-.07-.05-.09-.07,0,0h0a.1.1,0,0,0,0,0l-.09,0-2.19-1.27-2.69,1.62,2.34,1.23.09.06.09.07.09.06,0,0,.14.12h0l.14.13,0,0,.12.13,0,0,.11.13,0,0a.76.76,0,0,1,.11.14l0,.07.07.09.06.11.05.07,0,.07a.41.41,0,0,1,.07.11v0a1.19,1.19,0,0,1,.08.16h0c0,.06.05.12.07.17v0l.06.17v0a1.09,1.09,0,0,1,0,.17v0a1.36,1.36,0,0,1,0,.17v0c0,.05,0,.11,0,.16v0a1,1,0,0,1,0,.17v0c0,.06,0,.11,0,.17s0,.06,0,.09v.1a.34.34,0,0,1,0,.1v.1s0,.08,0,.12,0,0,0,.08l0,.16L1033,601.15c0,.28-1.12,2.05-.87,1.91l2.57-2.19a2.94,2.94,0,0,0,1-1.81l9.24-57.12c0-.27.12-.69.12-.69s0-.06,0-.08a.22.22,0,0,1,0-.08h0v0s0-.06,0-.1v-.08Z" transform="translate(-759.33 -152.07)" style="fill: #a1bbda"/>
        <path d="M1040.51,539.14a3.88,3.88,0,0,1,1.84,3.64l-9.56,59.06c-.21,1.3-1.37,1.78-2.6,1.08l-90.46-52.23a3.87,3.87,0,0,1-1.84-3.64L947.45,488c.21-1.3,1.37-1.78,2.6-1.07Z" transform="translate(-759.33 -152.07)" style="fill: #162c66"/>
        <path d="M1037.28,542.94a3.41,3.41,0,0,1,1.76,3.17l-8.64,49.55c-.19,1.1-1.29,1.44-2.46.79l-85.79-48.61a3.37,3.37,0,0,1-1.76-3.17L949,495.12c.19-1.09,1.29-1.44,2.45-.78Z" transform="translate(-759.33 -152.07)" style="fill: #7fb0f0"/>
        <path d="M996.17,516.94c0,.57-.4.8-.89.51a2,2,0,0,1-.9-1.55c0-.57.4-.79.9-.51A2,2,0,0,1,996.17,516.94Z" transform="translate(-759.33 -152.07)" style="fill: #fff"/>
        <path d="M1030.28,613.79l0-2.75-3.53,1.37-.76-1.75-88.49-51.08a4.87,4.87,0,0,0-4.28.17l-38.2,22v-.61L889,584l-.88-.33.08,2.69a1.22,1.22,0,0,0,.66,1L981,640.66a4.65,4.65,0,0,0,4.17-.11l44.12-25.44a1.67,1.67,0,0,0,1-1.34Z" transform="translate(-759.33 -152.07)" style="fill: #162c66"/>
        <path d="M980.91,637.31l-92.08-53.17c-1.06-.61-.93-1.7.3-2.41l44.12-25.47a4.69,4.69,0,0,1,4.18-.18l92.08,53.17c1.07.61.93,1.7-.3,2.41l-44.12,25.47A4.69,4.69,0,0,1,980.91,637.31Z" transform="translate(-759.33 -152.07)" style="fill: #e3ebf4"/>
        <path d="M946.6,611.62l-22.29-12.87c-.26-.15-.22-.41.07-.58L935.06,592a1.13,1.13,0,0,1,1,0l22.29,12.87c.26.15.22.41-.07.58l-10.68,6.17A1.13,1.13,0,0,1,946.6,611.62Z" transform="translate(-759.33 -152.07)" style="fill: #c7d9f0"/>
        <g>
          <path d="M938.77,565.93a.69.69,0,0,1-.61-.07l-5.59-3.22c-.2-.12-.25-.28-.12-.35l3.7-2.14a.69.69,0,0,1,.61.07l5.59,3.22c.2.12.26.28.12.35Z" transform="translate(-759.33 -152.07)" style="fill: #7fb0f0"/>
          <path d="M945.26,575.57a.76.76,0,0,1-.61-.07l-5.59-3.23c-.2-.12-.26-.27-.12-.35l3.7-2.14a.69.69,0,0,1,.61.07l5.59,3.23c.2.11.25.27.12.35Z" transform="translate(-759.33 -152.07)" style="fill: #7fb0f0"/>
          <path d="M942,579.57a.73.73,0,0,1-.61-.08l-5.59-3.22c-.2-.12-.26-.28-.12-.35l3.7-2.14a.69.69,0,0,1,.61.07l5.59,3.23c.2.11.25.27.12.34Z" transform="translate(-759.33 -152.07)" style="fill: #7fb0f0"/>
          <path d="M933.11,580.34a.76.76,0,0,1-.61-.07L926.91,577c-.2-.11-.25-.27-.12-.35l3.7-2.14a.72.72,0,0,1,.61.07l5.59,3.23c.2.11.25.27.12.35Z" transform="translate(-759.33 -152.07)" style="fill: #7fb0f0"/>
          <path d="M917.72,578.09a.67.67,0,0,1-.6-.07l-5.59-3.22c-.21-.12-.26-.28-.13-.35l4.35-2.52a.76.76,0,0,1,.61.07l5.59,3.23c.2.12.25.27.12.35Z" transform="translate(-759.33 -152.07)" style="fill: #7fb0f0"/>
          <path d="M927.36,583.65a.9.9,0,0,1-.72-.13l-7.32-4.23c-.27-.15-.37-.34-.24-.41l4.35-2.52a1,1,0,0,1,.72.14l7.32,4.23c.27.15.37.34.24.41Z" transform="translate(-759.33 -152.07)" style="fill: #7fb0f0"/>
          <path d="M975.48,611.46a.69.69,0,0,1-.57-.09l-5.58-3.23c-.21-.11-.28-.26-.17-.33l1.61-.92a.66.66,0,0,1,.57.09l5.58,3.23c.2.11.28.26.17.32Z" transform="translate(-759.33 -152.07)" style="fill: #7fb0f0"/>
          <path d="M983,615.88a.66.66,0,0,1-.57-.09l-5.58-3.22c-.21-.12-.28-.27-.17-.33l1.6-.93a.72.72,0,0,1,.58.09l5.58,3.23c.2.11.28.26.17.33Z" transform="translate(-759.33 -152.07)" style="fill: #7fb0f0"/>
          <path d="M990.87,620.35a.68.68,0,0,1-.56-.1L984.72,617c-.2-.12-.28-.27-.18-.33l1.55-.89a.71.71,0,0,1,.57.1l5.58,3.22c.2.12.28.26.18.33Z" transform="translate(-759.33 -152.07)" style="fill: #7fb0f0"/>
          <path d="M986,614.18a.68.68,0,0,1-.56-.1l-5.59-3.22c-.2-.12-.28-.27-.18-.33l1.55-.89a.68.68,0,0,1,.56.1l5.59,3.22c.2.12.28.26.18.32Z" transform="translate(-759.33 -152.07)" style="fill: #7fb0f0"/>
          <path d="M965.82,605.84a.69.69,0,0,1-.61-.07l-36.38-21c-.2-.12-.26-.28-.13-.35l4.35-2.52a.73.73,0,0,1,.61.08L970,603c.2.12.26.28.13.35Z" transform="translate(-759.33 -152.07)" style="fill: #7fb0f0"/>
          <path d="M962.09,602.66l-.31-.16-28.95-16.71a1.62,1.62,0,0,1-.28-.18l.27-.15a1.73,1.73,0,0,1,.31.16l29,16.71.28.17Z" transform="translate(-759.33 -152.07)" style="fill: #7fb0f0"/>
          <path d="M926.36,582.27a.08.08,0,0,1-.05,0L922,579.79l0,0,.28-.15h.05l4.28,2.47s0,0,0,0Z" transform="translate(-759.33 -152.07)" style="fill: #7fb0f0"/>
          <path d="M915.41,575.47h0l-1.81-1.05s0,0,0,0l.27-.16h0l1.81,1s0,0,0,0Z" transform="translate(-759.33 -152.07)" style="fill: #7fb0f0"/>
          <path d="M940.77,584.76a.73.73,0,0,1-.61-.08l-5.59-3.22c-.19-.12-.25-.28-.12-.35l3.7-2.14a.69.69,0,0,1,.61.07l5.59,3.22c.2.12.26.28.13.36Z" transform="translate(-759.33 -152.07)" style="fill: #7fb0f0"/>
          <path d="M948.47,589.2a.76.76,0,0,1-.61-.07l-5.59-3.23c-.2-.11-.25-.27-.12-.35l3.7-2.14a.72.72,0,0,1,.61.07l5.59,3.23c.2.11.25.27.12.35Z" transform="translate(-759.33 -152.07)" style="fill: #7fb0f0"/>
          <path d="M956.17,593.64a.72.72,0,0,1-.61-.07L950,590.34c-.2-.11-.25-.27-.12-.35l3.7-2.14a.76.76,0,0,1,.61.07l5.59,3.23c.2.11.25.27.12.35Z" transform="translate(-759.33 -152.07)" style="fill: #7fb0f0"/>
          <path d="M963.86,598.08a.67.67,0,0,1-.6-.07l-5.59-3.22c-.21-.12-.26-.28-.13-.36l3.71-2.14a.73.73,0,0,1,.61.08l5.59,3.22c.2.12.25.28.12.35Z" transform="translate(-759.33 -152.07)" style="fill: #7fb0f0"/>
          <path d="M971.56,602.52a.69.69,0,0,1-.61-.07l-5.59-3.22c-.2-.12-.25-.28-.12-.35l3.71-2.14a.67.67,0,0,1,.6.07l5.59,3.22c.2.12.26.28.13.35Z" transform="translate(-759.33 -152.07)" style="fill: #7fb0f0"/>
          <path d="M979.26,607a.69.69,0,0,1-.61-.07l-5.59-3.22c-.2-.12-.25-.28-.12-.35l3.7-2.14a.69.69,0,0,1,.61.07l5.59,3.22c.2.12.26.28.12.35Z" transform="translate(-759.33 -152.07)" style="fill: #7fb0f0"/>
          <path d="M996.6,617a.72.72,0,0,1-.61-.07l-15.23-8.79c-.2-.12-.26-.28-.12-.35l3.7-2.14a.69.69,0,0,1,.61.07l15.23,8.79c.2.11.25.27.12.35Z" transform="translate(-759.33 -152.07)" style="fill: #7fb0f0"/>
          <path d="M949.64,584a.69.69,0,0,1-.61-.07l-5.59-3.22c-.2-.12-.25-.28-.12-.35L947,578.2a.67.67,0,0,1,.6.07l5.59,3.22c.2.12.25.28.12.35Z" transform="translate(-759.33 -152.07)" style="fill: #7fb0f0"/>
          <path d="M957.34,588.43a.73.73,0,0,1-.61-.08l-5.59-3.22c-.2-.12-.26-.27-.12-.35l3.7-2.14a.69.69,0,0,1,.61.07l5.59,3.23c.2.11.25.27.12.34Z" transform="translate(-759.33 -152.07)" style="fill: #7fb0f0"/>
          <path d="M965,592.87a.74.74,0,0,1-.6-.07l-5.59-3.23c-.2-.11-.26-.27-.13-.35l3.71-2.14a.72.72,0,0,1,.61.07l5.58,3.23c.2.11.26.27.13.35Z" transform="translate(-759.33 -152.07)" style="fill: #7fb0f0"/>
          <path d="M972.73,597.31a.7.7,0,0,1-.6-.07L966.54,594c-.21-.11-.26-.27-.13-.35l3.71-2.14a.74.74,0,0,1,.6.07l5.59,3.23c.2.11.26.27.13.35Z" transform="translate(-759.33 -152.07)" style="fill: #7fb0f0"/>
          <path d="M980.43,601.75a.7.7,0,0,1-.6-.07l-5.6-3.23c-.2-.12-.25-.27-.12-.35l3.71-2.14a.74.74,0,0,1,.6.07l5.59,3.23c.2.11.26.27.13.35Z" transform="translate(-759.33 -152.07)" style="fill: #7fb0f0"/>
          <path d="M988.13,606.19a.72.72,0,0,1-.61-.07l-5.59-3.23c-.2-.11-.26-.27-.12-.35l3.7-2.14a.73.73,0,0,1,.61.08l5.59,3.22c.2.12.25.27.12.35Z" transform="translate(-759.33 -152.07)" style="fill: #7fb0f0"/>
          <path d="M995.82,610.63a.67.67,0,0,1-.6-.07l-5.59-3.23c-.2-.11-.26-.27-.12-.34l3.7-2.14a.67.67,0,0,1,.6.07l5.6,3.22c.2.12.25.28.12.35Z" transform="translate(-759.33 -152.07)" style="fill: #7fb0f0"/>
          <path d="M952.92,580a.69.69,0,0,1-.61-.07l-5.59-3.22c-.2-.12-.25-.27-.12-.35l3.71-2.14a.67.67,0,0,1,.6.07l5.59,3.22c.2.12.25.28.12.35Z" transform="translate(-759.33 -152.07)" style="fill: #7fb0f0"/>
          <path d="M960.61,584.43a.74.74,0,0,1-.6-.07l-5.59-3.23c-.2-.12-.26-.27-.12-.35l3.7-2.14a.69.69,0,0,1,.61.07l5.59,3.23c.19.11.25.27.12.35Z" transform="translate(-759.33 -152.07)" style="fill: #7fb0f0"/>
          <path d="M968.31,588.87a.72.72,0,0,1-.61-.07l-5.59-3.23c-.2-.11-.25-.27-.12-.35l3.71-2.14a.74.74,0,0,1,.6.07l5.59,3.23c.2.11.26.27.13.35Z" transform="translate(-759.33 -152.07)" style="fill: #7fb0f0"/>
          <path d="M976,593.31a.69.69,0,0,1-.61-.07L969.81,590c-.2-.11-.26-.27-.12-.35l3.7-2.14a.76.76,0,0,1,.61.07l5.59,3.23c.2.12.25.27.12.35Z" transform="translate(-759.33 -152.07)" style="fill: #7fb0f0"/>
          <path d="M983.71,597.75a.72.72,0,0,1-.61-.07l-5.59-3.23c-.2-.11-.25-.27-.12-.35L981.1,592a.74.74,0,0,1,.6.07l5.59,3.23c.2.11.25.27.12.35Z" transform="translate(-759.33 -152.07)" style="fill: #7fb0f0"/>
          <path d="M991.41,602.19a.69.69,0,0,1-.61-.07l-5.59-3.23c-.2-.11-.26-.27-.12-.35l3.7-2.14a.76.76,0,0,1,.61.07L995,599.7c.21.12.26.28.13.35Z" transform="translate(-759.33 -152.07)" style="fill: #7fb0f0"/>
          <path d="M999.1,606.63a.66.66,0,0,1-.6-.07l-5.6-3.22c-.2-.12-.25-.28-.12-.35l3.71-2.14a.67.67,0,0,1,.6.07l5.59,3.22c.2.12.26.28.13.35Z" transform="translate(-759.33 -152.07)" style="fill: #7fb0f0"/>
          <path d="M937.56,571.12a.69.69,0,0,1-.61-.07l-9.48-5.47c-.2-.11-.26-.27-.12-.35l3.7-2.14a.76.76,0,0,1,.61.07l9.48,5.47c.2.12.26.28.12.35Z" transform="translate(-759.33 -152.07)" style="fill: #7fb0f0"/>
          <path d="M1011.9,608.13a.72.72,0,0,1-.61-.07l-9.48-5.47c-.19-.12-.25-.28-.12-.35l3.7-2.14a.69.69,0,0,1,.61.07l9.48,5.47c.2.11.26.27.12.35Z" transform="translate(-759.33 -152.07)" style="fill: #7fb0f0"/>
          <path d="M934.28,575.12a.69.69,0,0,1-.61-.07l-11.3-6.52c-.2-.12-.26-.27-.12-.35L926,566a.69.69,0,0,1,.61.07l11.3,6.52c.2.12.26.28.12.35Z" transform="translate(-759.33 -152.07)" style="fill: #7fb0f0"/>
          <path d="M925.41,575.9a.74.74,0,0,1-.6-.07l-7.54-4.35c-.2-.12-.26-.28-.12-.35l3.7-2.14a.69.69,0,0,1,.61.07l7.53,4.35c.21.11.26.27.13.35Z" transform="translate(-759.33 -152.07)" style="fill: #7fb0f0"/>
          <path d="M946.47,570.37a.69.69,0,0,1-.61-.07l-5.59-3.22c-.2-.12-.26-.27-.12-.35l3.7-2.14a.69.69,0,0,1,.61.07l5.59,3.22c.2.12.25.28.12.36Z" transform="translate(-759.33 -152.07)" style="fill: #7fb0f0"/>
          <path d="M954.13,574.79a.69.69,0,0,1-.61-.07l-5.59-3.22c-.2-.12-.25-.28-.12-.35l3.7-2.14a.69.69,0,0,1,.61.07l5.59,3.22c.2.12.26.28.12.35Z" transform="translate(-759.33 -152.07)" style="fill: #7fb0f0"/>
          <path d="M961.82,579.23a.67.67,0,0,1-.6-.07l-5.59-3.22c-.2-.12-.26-.27-.12-.35l3.7-2.14a.69.69,0,0,1,.61.07l5.59,3.22c.2.12.25.28.12.35Z" transform="translate(-759.33 -152.07)" style="fill: #7fb0f0"/>
          <path d="M969.52,583.68a.74.74,0,0,1-.6-.07l-5.59-3.23c-.2-.11-.26-.27-.12-.35l3.7-2.14a.72.72,0,0,1,.61.07l5.58,3.23c.21.11.26.27.13.35Z" transform="translate(-759.33 -152.07)" style="fill: #7fb0f0"/>
          <path d="M977.22,588.12a.72.72,0,0,1-.61-.07L971,584.82c-.2-.11-.25-.27-.12-.35l3.7-2.14a.72.72,0,0,1,.61.07l5.59,3.23c.2.12.26.27.12.35Z" transform="translate(-759.33 -152.07)" style="fill: #7fb0f0"/>
          <path d="M984.92,592.56a.72.72,0,0,1-.61-.07l-5.59-3.23c-.2-.11-.25-.27-.12-.35l3.71-2.14a.74.74,0,0,1,.6.07l5.59,3.23c.2.11.26.27.12.35Z" transform="translate(-759.33 -152.07)" style="fill: #7fb0f0"/>
          <path d="M992.62,597a.69.69,0,0,1-.61-.07l-5.59-3.23c-.2-.11-.26-.27-.12-.35l3.7-2.14a.76.76,0,0,1,.61.07l5.59,3.23c.2.12.26.27.12.35Z" transform="translate(-759.33 -152.07)" style="fill: #7fb0f0"/>
          <path d="M1000.31,601.44a.67.67,0,0,1-.6-.07l-5.6-3.23c-.19-.11-.25-.27-.11-.34l3.7-2.14a.69.69,0,0,1,.6.06l5.6,3.23c.2.12.25.27.12.35Z" transform="translate(-759.33 -152.07)" style="fill: #7fb0f0"/>
          <path d="M1004.79,605.36a.86.86,0,0,0-.33-.11.43.43,0,0,0-.27,0l-3.71,2.14a.13.13,0,0,0-.07.16.49.49,0,0,0,.19.19l1.46.84-4.86,2.81a.12.12,0,0,0-.06.16.38.38,0,0,0,.19.19l3.76,2.17a.76.76,0,0,0,.33.11.46.46,0,0,0,.28,0l8.81-5.08a.13.13,0,0,0,.06-.16.45.45,0,0,0-.19-.2Z" transform="translate(-759.33 -152.07)" style="fill: #7fb0f0"/>
          <path d="M924.41,574.09s0,0-.06,0l-4.27-2.47,0,0,.27-.16s0,0,.06,0l4.27,2.46s0,0,0,0Z" transform="translate(-759.33 -152.07)" style="fill: #7fb0f0"/>
        </g>
      </g>
      <g>
        <path d="M1005.23,542.34l-24.49-15.67c-.67-.43-1.56-1.1-2-.65l-.09.48-7.08,4,4.08,6.88-.87,6.65c-.56,4.26,1.56,9.4,4.72,11.42l11.07,7.09,4.49,8.76,7.22-3.7a2.82,2.82,0,0,0,.36-.24h0a6.09,6.09,0,0,0,2.05-4.15l2.2-16.78A4.48,4.48,0,0,0,1005.23,542.34Z" transform="translate(-759.33 -152.07)" style="fill: #bcc8db"/>
        <path d="M991.27,570.84,973,560c-3.12-1.84-5.21-6.84-4.66-11.1l2.2-16.79c.2-1.51,1.27-2.21,2.37-1.55l25.59,15.14a4.21,4.21,0,0,1,1.65,3.93L998,566.44C997.39,570.71,994.38,572.68,991.27,570.84Z" transform="translate(-759.33 -152.07)" style="fill: #fff"/>
        <path d="M980,546.63c.27-2.06,2-2.85,3.77-1.78a6.22,6.22,0,0,1,2.8,5.67c-.27,2.06-2,2.85-3.77,1.78A6.22,6.22,0,0,1,980,546.63Z" transform="translate(-759.33 -152.07)" style="fill: #162c66"/>
        <path d="M983.07,546.26l.24.09c.89.33,1.44,1.91,1.22,3.52l-.69,5c-.22,1.6-1.14,2.65-2,2.31l-.24-.09c-.89-.33-1.44-1.91-1.22-3.52l.69-5C981.26,547,982.18,545.92,983.07,546.26Z" transform="translate(-759.33 -152.07)" style="fill: #162c66"/>
        <path d="M1000.7,541.64a2.3,2.3,0,0,0,.91-1.71c.25-6.52-.71-17.33-9.15-20.74a9.7,9.7,0,0,0-9,.4c-3.63,2.17-5.53,6.53-6.49,9.82-.44,1.49,1.29,2.44,2.61,1.44l1.51-1.15a2.4,2.4,0,0,0,.78-1.07c.8-2.2,2-4.44,3.68-5.44.46-.28,1.84-1.1,4.63,0,6.36,2.58,7,11.72,6.77,17.28-.07,1.71,2,2.51,3.47,1.34Z" transform="translate(-759.33 -152.07)" style="fill: #162c66"/>
        <path d="M971.42,554.14h0a.93.93,0,0,1-1-1.06l2.2-16.78a1.27,1.27,0,0,1,1.25-1.06h0a.94.94,0,0,1,1,1.06l-2.2,16.78A1.28,1.28,0,0,1,971.42,554.14Z" transform="translate(-759.33 -152.07)" style="fill: #fff"/>
      </g>
      <path d="M856.74,592.62c6.27,1.56,10,2.19,16.23.65,20.68-5.14,40-11,61.52-13,10.83-1,11.32-18.07.36-17.08A285,285,0,0,0,876,574.33c-3.61,1.12-7.18,2.34-10.73,3.63,3.25-1.18,5.6.55,2.73-.17-1.8-.44-3.6-.85-5.39-1.29C834.59,569.58,827.62,585.39,856.74,592.62Z" transform="translate(-759.33 -152.07)" style="fill: #ffc2b0"/>
      <path d="M829.44,630.21c0,6.38-4.5,14.14-10.05,17.35s-10.06.64-10.06-5.74,4.5-14.14,10.06-17.34S829.44,623.84,829.44,630.21Z" transform="translate(-759.33 -152.07)" style="fill: #fff"/>
      <path d="M886.94,460.38l-.27,3.22s-.73,9.72-9.65,3.58S869.85,449,869.85,449,877.18,449,886.94,460.38Z" transform="translate(-759.33 -152.07)" style="fill: #fff;opacity: 0.46"/>
      <path d="M876.93,467.45c11.63,7.94,12.54-3.39,12.54-3.39l.1.06.09-3.89c-12.42-13.54-21.29-14-21.29-14S865.29,459.52,876.93,467.45Zm-6.65-17.92s7.1.47,16.6,11l-.25,2.79s-.68,8.42-9.33,2.51S870.28,449.53,870.28,449.53Z" transform="translate(-759.33 -152.07)" style="fill: #513554"/>
      <polygon points="134.53 314.7 127.56 310.45 127.66 306.22 134.63 310.47 134.53 314.7" style="fill: #513554"/>
      <path d="M868.59,449.48l-1.24-.75a3,3,0,0,1-1.18-2.4h0c0-.91.59-1.31,1.26-.9l1.24.75a3,3,0,0,1,1.18,2.39h0C869.83,449.48,869.26,449.89,868.59,449.48Z" transform="translate(-759.33 -152.07)" style="fill: #513554"/>
      <path d="M871.08,454.7h0c-.26-.41-.3-.89-.09-1.07l2.5-2.17c.21-.18.6,0,.86.4h0c.26.4.3.88.09,1.07L872,455.09C871.73,455.28,871.35,455.1,871.08,454.7Z" transform="translate(-759.33 -152.07)" style="fill: #fcfeff"/>
      <path d="M857.29,687.51c11.37,33.34,16.5,72.59,15.43,107.49-.8,26-2.47,49.93-1.82,75.94.43,17.06,27,17.12,26.56,0-.67-26.73,3.58-53.68,4.31-80.41,1-36.37-.52-74.26-12.35-109-5.49-16.09-31.15-9.18-25.61,7.06Z" transform="translate(-759.33 -152.07)" style="fill: #161318"/>
      <path d="M810.38,658.68c6,21.65,8.66,44,10.82,66.28,1.28,13.17,2.84,25.74,1.45,38.88-2.79,26.44-7.71,53.38-7.53,80,.12,17.08,26.68,17.12,26.56,0-.19-27,9-54.6,11.79-81.44,1.41-13.52,2.84-61.7,1.5-75.22-2.35-23.75-2-22.22-8.31-45.29-4.53-16.45-40.83.24-36.28,16.77Z" transform="translate(-759.33 -152.07)" style="fill: #161318"/>
      <path d="M832.15,704.8h0c2.45,2.75-8.09-10.63-4.94-8.72,6.57,4,43.44,29,51.12,29.15,9.26.15,3.86-8.81,10.76-15,6.55-5.87,8.09-15.42,8.73-24.19.17-2.42.29-4.95-.67-7.18-1-2.41-3.21-4.12-5.31-5.7-16.38-12.4-48.6-43.09-71.48-33.27C793.92,651.22,820.41,691.64,832.15,704.8Z" transform="translate(-759.33 -152.07)" style="fill: #161318"/>
      <path d="M812.93,515.56c-4.85,6.26-4.28,10.12-4,18.66A19.08,19.08,0,0,0,822.81,552l82.1,23s4.72-31.59-11.48-41.1c-8.72-5.12-22.25-13.31-32.88-19.78C844.93,504.68,824.13,501.12,812.93,515.56Z" transform="translate(-759.33 -152.07)" style="fill: #2a174a"/>
      <path d="M850.36,514.5l6.95-30.95,18.88,12.7-5.69,28.18C870,529,849,525,850.36,514.5Z" transform="translate(-759.33 -152.07)" style="fill: #ffc2b0"/>
      <path d="M868.29,437.63s-17.22-15.33-21.21,16.45a55.88,55.88,0,0,0,25.49,53.7c10.66,6.73,25.3,1.5,27.24-9.44,4.61-15.75,6.45-30.77,2.73-44.33,2.33-13.2-7.37-9.56-23.06-12.31Z" transform="translate(-759.33 -152.07)" style="fill: #ffc2b0"/>
      <path d="M863.43,502.21a21.39,21.39,0,0,1-17.62-10.82c-4.47-7.76-10.41-21.1-7.5-33.61,7.55-32.54,30.3-22.89,47.42-22.6,8.48.14,14.26-2.17,20.16,6.33,5.38,7.75-.34,20.85-10.45,20.55-4-.12-2.71,7.32-4,10.89-2.21,6.35-10.47,8.08-11.91,14.47-2,9-9.08,14.84-14.89,14.82Q864,502.24,863.43,502.21Z" transform="translate(-759.33 -152.07)" style="fill: #161318"/>
      <path d="M808.59,658c-5.22-2-4-84.68.69-134.3l92.45,36.81c-.46,42.23-5.8,75.56-.74,127Z" transform="translate(-759.33 -152.07)" style="fill: #2a174a"/>
      <path d="M870.16,696.7c-22.83-8.33-44.58-17.45-57.36-33.12-6.28-3.63-5.49-10,1.76-14.2h0c7.25-4.18,18.31-4.64,24.59-1l57.36,33.12c6.28,3.62,5.48,10-1.76,14.2h0C887.5,699.86,876.44,700.32,870.16,696.7Z" transform="translate(-759.33 -152.07)" style="fill: #2a174a"/>
      <path d="M901.73,560.48,881.55,563c-.62,41.18,6.7,119.63-8.65,123.22,0,0-5.58,2.89-17.93,1-11-4-21.66-8.19-31.25-13.19,12.6,9.66,29.21,16.4,46.44,22.69,6.28,3.62,17.34,3.16,24.59-1h0c4.06-2.35,6.1-5.39,6-8.25l.25.08C895.93,636,901.27,602.71,901.73,560.48Z" transform="translate(-759.33 -152.07)" style="fill: #201733"/>
      <path d="M882.74,527.59c-21.2-3.19-35.52,10.14-40.58-20.39h0a6.77,6.77,0,0,1,9.15,2c3.64,5.26,11.38,8.58,19.93,7.53a6.75,6.75,0,0,1,6.47,3Z" transform="translate(-759.33 -152.07)" style="fill: #fff"/>
      <path d="M886.24,555.22c1.44,17.67,4.25,33.84,11.64,50,5.31,11.65,10.76,28.32,22.26,35.66,26,16.58,42.3-12,54.56-28.12,6.65-8.76-5-16.65-11.57-8-6.94,9.16-24.45,34.71-37.67,17.41-14.11-18.47-20.29-44.45-22.13-67-.89-10.89-18-11-17.09,0Z" transform="translate(-759.33 -152.07)" style="fill: #ffc2b0"/>
      <path d="M886.93,484.48c-.16,4.78-3.06,8.56-6.49,8.44a4.43,4.43,0,0,1-1.09-.17c-2.87-.82-5-4.43-4.81-8.69.16-4.78,3.06-8.56,6.48-8.44S887.09,479.7,886.93,484.48Z" transform="translate(-759.33 -152.07)" style="fill: #ffc2b0"/>
      <path d="M906.28,897.32c-.57.33-8.57,2.48-9.11,2.79-.82.46-3.25,1.71-4.69,2.36-3,1.37-10.12,7.49-18.21.51-11.83-10.21,24.41-25,24.41-25l15.61-4.47a6.26,6.26,0,0,1,5.59,1.14h0a6.55,6.55,0,0,1,1,9.42C916.73,888.79,915.92,891.86,906.28,897.32Z" transform="translate(-759.33 -152.07)" style="fill: #162642"/>
      <path d="M905.59,893c-.57.32-8.57,2.48-9.1,2.79-.83.46-3.25,1.71-4.7,2.36-3,1.37-10.12,7.49-18.21.51-11.83-10.21,24.41-25,24.41-25l15.62-4.47a6.22,6.22,0,0,1,5.58,1.14h0a6.54,6.54,0,0,1,1,9.42C916,884.49,915.23,887.56,905.59,893Z" transform="translate(-759.33 -152.07)" style="fill: #70707f"/>
      <path d="M894.33,876.71c-5.37,4.69-16.51,4-20.69-1.9-.07,3.28-.08,6.55,0,9.81.33,13.52,21.06,13.57,20.73,0Q894.28,880.68,894.33,876.71Z" transform="translate(-759.33 -152.07)" style="fill: #b3e3f5"/>
      <path d="M868.2,872.76l.23,9.17a1.93,1.93,0,0,0,.37,1.09,16.75,16.75,0,0,0,16.75,6.4c8.7-1.54,13.37-4.28,15.17-5.56a1.89,1.89,0,0,0,.79-1.73l-.86-9.34a1.91,1.91,0,0,0-2.86-1.5c-4.44,2.62-14.28,6.5-26.72-.25A1.93,1.93,0,0,0,868.2,872.76Z" transform="translate(-759.33 -152.07)" style="fill: #70707f"/>
      <path d="M851.55,860.54c-.5.43-7.86,4.12-8.33,4.53-.71.61-2.82,2.32-4.1,3.24-2.69,1.94-8.37,9.31-17.64,4.12-13.56-7.6,18.81-29.21,18.81-29.21l14.32-7.46a6.26,6.26,0,0,1,5.67,0h0a6.52,6.52,0,0,1,2.87,9C860,850.14,859.85,853.29,851.55,860.54Z" transform="translate(-759.33 -152.07)" style="fill: #162642"/>
      <path d="M850,856.48c-.5.43-7.86,4.13-8.32,4.53-.71.62-2.83,2.32-4.11,3.24-2.68,1.94-8.37,9.31-17.64,4.12-13.56-7.59,18.81-29.21,18.81-29.21l14.32-7.46a6.23,6.23,0,0,1,5.67,0h0a6.52,6.52,0,0,1,2.87,9C858.5,846.09,858.32,849.24,850,856.48Z" transform="translate(-759.33 -152.07)" style="fill: #70707f"/>
      <path d="M837.92,843.92c-5.35,4.66-16.42,4-20.58-1.89-.07,3.25-.08,6.51,0,9.76.32,13.44,20.94,13.49,20.62,0C837.89,849.17,837.89,846.54,837.92,843.92Z" transform="translate(-759.33 -152.07)" style="fill: #b3e3f5"/>
      <path d="M811.93,840l.23,9.13a1.91,1.91,0,0,0,.36,1.08,16.66,16.66,0,0,0,16.66,6.36c8.65-1.52,13.3-4.25,15.09-5.52a1.89,1.89,0,0,0,.79-1.73L844.2,840a1.9,1.9,0,0,0-2.84-1.49c-4.42,2.61-14.21,6.47-26.58-.24A1.91,1.91,0,0,0,811.93,840Z" transform="translate(-759.33 -152.07)" style="fill: #70707f"/>
      <path d="M907,490.61h0c-.11.68-.76,1.12-1.36,1.43a14.87,14.87,0,0,1-5.53,1.64,3.28,3.28,0,0,1-2.62-.59,3.18,3.18,0,0,1-.61-2.76c.37-2.58,2.06-6.86,5.18-7,1.28-.06,1.74-8.74,1.76-7.5C903.88,480.81,905.78,487.44,907,490.61Z" transform="translate(-759.33 -152.07)" style="fill: #ffc2b0"/>
      <path d="M880.73,554.14c.42,38.4,13.15,64.68,28.39,78.72,8.19,5.76,17.81-7.11,15.38-15.77-14.92-16.43-17-33-19.4-60.4-1.59-5.52-5-14.84-11.09-13.93l-4.35-.15C883.35,543.56,880,548.22,880.73,554.14Z" transform="translate(-759.33 -152.07)" style="fill: #2a174a"/>
      <path d="M924.81,616.78c-.61,6-3.18,18.86-14,20.09a5.53,5.53,0,0,1-4.39-1.51l-2.4-2.25a5.6,5.6,0,0,1,.17-8.31,53.06,53.06,0,0,0,10.16-11.44,5.64,5.64,0,0,1,8.38-1.48l0,0A5.62,5.62,0,0,1,924.81,616.78Z" transform="translate(-759.33 -152.07)" style="fill: #fff"/>
      <g style="opacity: 0.58">
        <path d="M1068.82,372.48a27.13,27.13,0,0,0-3.39-1.66c-4.43-19.37-17.89-38.71-33.36-47.64-11.71-6.77-22.41-6.38-28.91.94a36.67,36.67,0,0,0-6-4.41c-11.4-6.58-20.84-2.44-22.4,9.35-.69-.5-1.39-.95-2.07-1.35-9.9-5.71-17.95-1.12-17.95,10.23,0,10.74,7.31,24,16.65,30.13l97.45,56.34c12.48,7.21,22.63,1.42,22.63-12.9S1081.3,379.69,1068.82,372.48Z" transform="translate(-759.33 -152.07)" style="fill: #ebf0ff"/>
      </g>
      <g>
        <path d="M1016.15,454.81c0,1.47-1,2.07-2.33,1.33a5.15,5.15,0,0,1-2.32-4c0-1.48,1-2.07,2.32-1.33A5.12,5.12,0,0,1,1016.15,454.81Z" transform="translate(-759.33 -152.07)" style="fill: #ebf0ff"/>
        <path d="M1016.15,473.47c0,1.48-1,2.07-2.33,1.33a5.13,5.13,0,0,1-2.32-4c0-1.48,1-2.07,2.32-1.33A5.12,5.12,0,0,1,1016.15,473.47Z" transform="translate(-759.33 -152.07)" style="fill: #ebf0ff"/>
        <path d="M1016.15,492.13c0,1.48-1,2.07-2.33,1.33a5.13,5.13,0,0,1-2.32-4c0-1.47,1-2.07,2.32-1.33A5.12,5.12,0,0,1,1016.15,492.13Z" transform="translate(-759.33 -152.07)" style="fill: #ebf0ff"/>
        <path d="M1042.71,406.24h0c-3.11-1.79-4.67-7-2.47-8.26h0c2.49-1.42,2.49-6.05,0-10.34l-1.28-2.21c-2.49-4.3-6.52-6.63-9-5.21h0c-2.2,1.26-6-2.7-6-6.27h0a14,14,0,0,0-6.37-11l-1.81-1c-3.52-2-6.38-.4-6.38,3.64h0c0,3.56-3.76,3.18-5.95-.61h0c-2.49-4.3-6.53-6.63-9-5.21l-1.28.73c-2.49,1.42-2.49,6.05,0,10.35h0c2.2,3.79.64,7.2-2.47,5.41h0c-3.52-2-6.37-.41-6.37,3.63v2.08a14,14,0,0,0,6.37,11c3.11,1.8,4.67,7,2.47,8.27h0c-2.49,1.42-2.49,6.05,0,10.34l1.28,2.21c2.49,4.29,6.53,6.62,9,5.2h0c2.19-1.25,5.95,2.71,5.95,6.27h0a14.07,14.07,0,0,0,6.38,11l1.81,1c3.52,2,6.37.41,6.37-3.63,0-3.57,3.76-3.19,6,.61,2.49,4.29,6.52,6.62,9,5.2l1.28-.73c2.49-1.42,2.49-6.05,0-10.34h0c-2.2-3.79-.64-7.21,2.47-5.41h0c3.52,2,6.37.4,6.37-3.64v-2.08A14,14,0,0,0,1042.71,406.24Zm-26,11.49c-8.73-5-15.81-17.26-15.81-27.28s7.08-14.06,15.81-9,15.82,17.26,15.82,27.28S1025.45,422.78,1016.71,417.73Z" transform="translate(-759.33 -152.07)" style="fill: #fff"/>
      </g>
      <path d="M926.83,440.66l-118-68.15c-3.94-2.27-7.16-8.43-7.16-13.68V247.14c0-5.25,3.22-7.69,7.16-5.41l118,68.15c3.94,2.27,7.16,8.43,7.16,13.68V435.25C934,440.5,930.77,442.94,926.83,440.66Z" transform="translate(-759.33 -152.07)" style="fill: #d2ebff;opacity: 0.6900000000000001"/>
      <g>
        <path d="M831,309.13c.42,20.12,15,44.25,32.48,53.89s31.4,1.14,31-19-15-44.25-32.48-53.89S830.6,289,831,309.13Zm53,29.16c.28,13.49-9,19.19-20.78,12.72s-21.5-22.64-21.78-36.13,9-19.2,20.78-12.73S883.75,324.79,884,338.29Z" transform="translate(-759.33 -152.07)" style="fill: #2a174a"/>
        <path d="M862,290.15c-10.73-5.9-20.07-5-25.63,1.19l8.81,11.48c3.74-4,10-4.59,17.07-.67,9.72,5.35,18.07,17.36,20.82,29l10.1,2.7C889.18,316.35,876.63,298.2,862,290.15Z" transform="translate(-759.33 -152.07)" style="fill: #b3e3f5"/>
        <path d="M839.49,337.64l7.8-3.39c-3.49-6.2-5.69-13.08-5.82-19.37-.11-5.7,1.48-10,4.24-12.59l-8.18-12.11c-4.23,3.84-6.69,10.32-6.51,18.95C831.21,318.38,834.4,328.49,839.49,337.64Z" transform="translate(-759.33 -152.07)" style="fill: #ea74ff"/>
      </g>
      <path d="M834.67,372.76l-18-10.41a7.08,7.08,0,0,1-2.93-5.61h0c0-2.15,1.32-3.15,2.93-2.22l18,10.41a7.08,7.08,0,0,1,2.93,5.61h0C837.6,372.69,836.28,373.69,834.67,372.76Z" transform="translate(-759.33 -152.07)" style="fill: #fff"/>
      <path d="M867,391.69l-18-10.41a7.06,7.06,0,0,1-2.94-5.61h0c0-2.15,1.32-3.15,2.94-2.22l18,10.42a7,7,0,0,1,2.93,5.6h0C869.93,391.62,868.61,392.62,867,391.69Z" transform="translate(-759.33 -152.07)" style="fill: #fff"/>
      <path d="M899.33,410.62l-18-10.41a7.07,7.07,0,0,1-2.93-5.61h0c0-2.15,1.32-3.15,2.93-2.21l18,10.41a7,7,0,0,1,2.93,5.6h0C902.26,410.55,901,411.55,899.33,410.62Z" transform="translate(-759.33 -152.07)" style="fill: #fff"/>
      <g>
        <path d="M812,450.34l-47.45-25.61c-2.64-1.43-4.8-5.34-4.81-8.74l-.39-97.61c0-3.4,2.11-5,4.76-3.58l47.45,25.61c2.64,1.43,4.79,5.34,4.81,8.74l.39,97.61C816.75,450.16,814.62,451.77,812,450.34Z" transform="translate(-759.33 -152.07)" style="fill: #46a4f0"/>
        <path d="M779.93,348.37l-10.2-5.51A8.45,8.45,0,0,1,766,336h0c0-2.67,1.66-3.92,3.73-2.8l10.2,5.5a8.47,8.47,0,0,1,3.77,6.85h0C783.67,348.23,782,349.49,779.93,348.37Z" transform="translate(-759.33 -152.07)" style="fill: #ea74ff"/>
        <path d="M794.05,372.7l-15.38-8.3a6.68,6.68,0,0,1-3-5.42h0c0-2.1,1.31-3.1,2.95-2.21l15.38,8.3a6.66,6.66,0,0,1,3,5.42h0C797,372.59,795.69,373.59,794.05,372.7Z" transform="translate(-759.33 -152.07)" style="fill: #fff"/>
        <path d="M807,397.15l-28.28-15.26a6.7,6.7,0,0,1-3-5.42h0c0-2.11,1.31-3.1,3-2.21L807,389.52a6.69,6.69,0,0,1,3,5.41h0C810,397,808.65,398,807,397.15Z" transform="translate(-759.33 -152.07)" style="fill: #a7d1e8"/>
        <path d="M794.19,407.68l-15.38-8.3a6.7,6.7,0,0,1-3-5.42h0c0-2.11,1.31-3.1,2.95-2.21l15.38,8.3a6.66,6.66,0,0,1,3,5.42h0C797.15,407.57,795.83,408.57,794.19,407.68Z" transform="translate(-759.33 -152.07)" style="fill: #fff"/>
        <path d="M781,417.05l-10.53-5.68a6.71,6.71,0,0,1-3-5.42h0c0-2.11,1.32-3.1,2.95-2.21L781,409.42a6.7,6.7,0,0,1,3,5.42h0C784,417,782.63,417.94,781,417.05Z" transform="translate(-759.33 -152.07)" style="fill: #ea74ff"/>
      </g>
      <g style="opacity: 0.6900000000000001">
        <path d="M872.51,239.51c5.41,3.26,10,9.9,11.77,16.47l5.83-4.49c-3.68-8.8-10.07-17-17.42-21.44s-13.91-4-17.84.19l5.52,11.32C862.37,237.29,867.09,236.24,872.51,239.51Z" transform="translate(-759.33 -152.07)" style="fill: #d2ebff"/>
        <path d="M845.25,210.53l5.22,10.71c5.28-4.44,13.38-4.5,22.37.93s16.9,15.11,21.89,25.75l5.51-4.24c-.67-1.32-1.39-2.63-2.12-3.91-6.41-11.24-15.25-21.13-25.1-27.06C862.05,206.09,852.09,205.75,845.25,210.53Z" transform="translate(-759.33 -152.07)" style="fill: #d2ebff"/>
        <path d="M868.07,257.33c.09.15.18.3.28.44l.51.7c.16.21.32.41.49.61s.31.35.47.53.45.44.69.66.26.24.4.35a9.13,9.13,0,0,0,1.17.85,8.53,8.53,0,0,0,1.18.58l.41.12a4.62,4.62,0,0,0,.69.17,4.12,4.12,0,0,0,.48.05h.5a4.51,4.51,0,0,0,.53-.08c.1,0,.19-.06.29-.09a3.41,3.41,0,0,0,2.11-2.36h0a6.83,6.83,0,0,0,.3-1.79,9,9,0,0,0-.1-1.54,14.34,14.34,0,0,0-6.11-9.55c-3.07-1.85-5.68-.9-6.33,2a6.53,6.53,0,0,0-.16,1.38,8,8,0,0,0,.08,1.19c0,.3.08.61.14.92h0a12.48,12.48,0,0,0,.57,1.93A14.93,14.93,0,0,0,868.07,257.33Z" transform="translate(-759.33 -152.07)" style="fill: #d2ebff"/>
      </g>
    </g>
  </g>
</svg>
