<svg xmlns="http://www.w3.org/2000/svg" height="360" width="600">
 <rect width="600" fill="#fff" height="360"/>
 <path fill="#046a38" d="m350 215h250v145h-250zm-350 50h230v95h-230zm300-265h300v95h-300zm-300 0h180v145h-180z"/>
 <path fill="none" stroke="#ffb81c" stroke-width="20" d="m200 0v165h-200m280-165v115h320m-600 130h250v115m350-165h-270v165"/>
 <path fill="#418fde" d="m310 360v-175a40 40 0 0 0 -40 40v135zm-310-135h260a40 40 0 0 0 -40 -40h-220zm600-90h-330a40 40 0 0 0 40 40h290zm-380-135v175a40 40 0 0 0 40 -40v-135z"/>
</svg>
