<?xml version="1.0" standalone="no"?>
<!DOCTYPE svg PUBLIC "-//W3C//DTD SVG 20010904//EN"
 "http://www.w3.org/TR/2001/REC-SVG-20010904/DTD/svg10.dtd">
<svg version="1.0" xmlns="http://www.w3.org/2000/svg"
 width="800.000000pt" height="800.000000pt" viewBox="0 0 800.000000 800.000000"
 preserveAspectRatio="xMidYMid meet">
<metadata>
Created by potrace 1.11, written by Peter Selinger 2001-2013
</metadata>
<g transform="translate(0.000000,800.000000) scale(0.100000,-0.100000)"
fill="#000000" stroke="none">
<path d="M3795 7883 c-707 -36 -1431 -284 -2015 -691 -353 -246 -726 -619
-972 -972 -742 -1065 -901 -2441 -421 -3650 489 -1234 1584 -2141 2879 -2384
289 -55 356 -60 729 -60 388 0 471 7 781 69 1405 283 2549 1336 2953 2719 47
161 102 423 128 611 14 104 17 201 17 480 0 373 -5 440 -60 729 -225 1198
-1020 2232 -2127 2766 -589 284 -1240 416 -1892 383z m2225 -1379 c238 -48
394 -136 542 -307 116 -135 152 -237 152 -437 0 -322 -123 -661 -377 -1042
-306 -459 -663 -838 -1243 -1320 -626 -519 -1222 -858 -1746 -993 -306 -78
-532 -69 -728 30 -92 46 -133 84 -160 147 -19 44 -22 65 -18 137 11 201 158
432 479 751 112 112 329 300 329 285 0 -3 -24 -74 -52 -158 -51 -147 -53 -156
-53 -262 0 -223 67 -288 275 -265 238 27 663 256 1135 610 443 333 915 813
1156 1174 71 108 177 320 213 428 113 335 43 579 -199 699 -116 57 -200 72
-370 66 -201 -8 -467 -62 -735 -150 -469 -154 -1015 -452 -1495 -814 -153
-116 -239 -185 -725 -586 -185 -153 -250 -197 -250 -171 0 13 243 277 400 435
465 466 955 850 1465 1149 283 165 771 389 1057 484 359 120 699 160 948 110z
m-799 -872 c152 -41 245 -107 291 -207 19 -41 23 -66 22 -140 -1 -108 -36
-213 -107 -322 -58 -90 -218 -281 -347 -413 l-103 -105 -27 85 c-15 47 -42
115 -60 152 l-34 67 51 45 c66 60 97 128 96 217 -1 251 -311 375 -486 194 -20
-21 -37 -41 -37 -44 0 -3 -4 -12 -8 -19 -6 -9 -28 -4 -90 23 -45 20 -117 45
-159 56 -104 27 -301 35 -405 17 -43 -8 -78 -13 -78 -11 0 9 265 156 402 223
220 106 394 166 573 196 120 20 407 12 506 -14z m-400 -454 c83 -46 120 -151
85 -242 -9 -23 -27 -53 -40 -65 l-23 -21 -46 59 c-46 58 -139 145 -204 190
-37 25 -35 37 11 69 69 47 145 51 217 10z m-679 -173 c81 -17 169 -51 246 -96
73 -44 227 -198 271 -273 47 -80 88 -199 103 -303 l12 -86 -149 -145 c-274
-264 -509 -462 -689 -581 l-99 -65 -66 17 c-146 39 -304 141 -402 260 -58 72
-130 213 -155 307 -13 48 -18 101 -18 200 0 124 3 143 32 230 44 133 92 210
197 316 118 119 235 185 390 219 80 18 244 18 327 0z m-1068 -312 c-80 -159
-106 -270 -107 -453 -1 -101 4 -164 15 -208 l16 -64 -170 -166 c-318 -311
-516 -580 -679 -917 -99 -206 -129 -308 -129 -445 0 -240 135 -405 389 -471
58 -16 108 -20 216 -21 387 0 817 128 1376 407 671 337 1289 751 1782 1197 90
82 117 100 117 80 0 -13 -137 -181 -251 -308 -185 -207 -397 -391 -779 -676
-740 -552 -1508 -956 -2091 -1098 -219 -53 -316 -65 -549 -65 -236 0 -313 11
-461 65 -365 133 -546 481 -474 906 33 193 134 459 252 664 37 63 86 153 109
200 85 167 273 388 625 735 236 232 474 445 714 639 72 58 131 106 131 106 1
0 -22 -48 -52 -107z m2396 -2174 c91 -130 206 -221 339 -267 l35 -12 -60 -36
c-170 -102 -314 -317 -376 -561 l-21 -87 -23 87 c-67 252 -207 461 -374 559
-52 31 -60 39 -44 44 124 46 232 118 306 207 49 59 128 204 128 236 0 9 15
-18 34 -60 18 -42 43 -92 56 -110z"/>
</g>
</svg>
