<?xml version="1.0" standalone="no"?>
<!DOCTYPE svg PUBLIC "-//W3C//DTD SVG 20010904//EN"
 "http://www.w3.org/TR/2001/REC-SVG-20010904/DTD/svg10.dtd">
<svg version="1.0" xmlns="http://www.w3.org/2000/svg"
 width="2012.000000pt" height="2012.000000pt" viewBox="0 0 2012.000000 2012.000000"
 preserveAspectRatio="xMidYMid meet">
<metadata>
Created by potrace 1.11, written by Peter Selinger 2001-2013
</metadata>
<g transform="translate(0.000000,2012.000000) scale(0.100000,-0.100000)"
fill="#000000" stroke="none">
<path d="M14467 16554 c-1 -1 -53 -5 -116 -9 -62 -4 -121 -8 -130 -10 -9 -1
-47 -6 -84 -10 -37 -3 -76 -8 -86 -10 -10 -2 -42 -6 -71 -10 -29 -4 -62 -9
-74 -11 -11 -2 -36 -6 -56 -9 -20 -3 -47 -8 -60 -11 -14 -2 -61 -11 -105 -20
-62 -11 -263 -59 -415 -98 -270 -70 -660 -203 -972 -332 -62 -25 -185 -75
-273 -111 -535 -218 -1105 -487 -1539 -728 -39 -21 -91 -50 -117 -64 -102 -55
-277 -156 -352 -203 -43 -26 -80 -48 -82 -48 -2 0 -56 -33 -122 -73 -776 -479
-1466 -979 -2158 -1562 -39 -33 -93 -79 -121 -102 -54 -46 -70 -59 -164 -141
-66 -58 -109 -97 -262 -235 -129 -117 -133 -121 -273 -251 -178 -165 -827
-815 -956 -956 -57 -63 -126 -139 -154 -169 -27 -31 -69 -76 -92 -101 -23 -25
-56 -62 -73 -82 -17 -20 -46 -52 -63 -71 -89 -96 -183 -201 -190 -214 -12 -20
-1 -28 42 -28 31 0 52 12 122 66 69 55 512 416 584 477 83 70 590 491 760 631
116 95 221 182 235 194 53 45 573 456 679 537 62 47 122 93 133 103 12 9 24
17 27 17 3 0 18 10 31 23 14 12 39 31 55 43 17 11 86 61 155 111 315 226 704
482 1095 718 80 49 460 266 550 315 112 61 620 316 715 359 150 69 395 175
510 221 58 23 114 46 125 50 153 69 746 268 975 328 41 11 87 25 103 31 15 6
27 9 27 6 0 -2 18 2 40 10 22 8 40 12 40 10 0 -2 15 1 33 6 42 13 187 47 312
74 47 10 333 64 365 69 245 38 254 39 401 53 158 15 486 8 590 -12 13 -3 40
-8 59 -11 19 -4 44 -9 55 -11 11 -3 36 -8 55 -12 75 -17 230 -74 329 -123 278
-136 450 -307 556 -555 31 -71 57 -156 70 -223 3 -14 7 -36 10 -50 27 -135 22
-389 -11 -570 -36 -196 -118 -465 -195 -637 -10 -24 -19 -45 -19 -47 0 -2 -10
-25 -22 -52 -12 -27 -22 -51 -23 -54 -2 -12 -167 -340 -201 -400 -136 -239
-264 -432 -434 -656 -59 -77 -115 -149 -123 -160 -9 -10 -47 -57 -84 -104 -37
-47 -78 -96 -89 -110 -12 -14 -51 -59 -85 -100 -35 -41 -68 -80 -74 -86 -10
-11 -98 -111 -134 -153 -209 -241 -784 -821 -1117 -1127 -72 -66 -184 -166
-264 -234 -47 -40 -98 -84 -115 -99 -94 -82 -458 -375 -566 -456 -15 -11 -69
-52 -120 -90 -52 -39 -137 -102 -189 -140 -52 -38 -111 -80 -130 -94 -111 -82
-537 -365 -725 -483 -146 -91 -445 -273 -500 -303 -22 -13 -78 -45 -125 -72
-302 -175 -782 -369 -1087 -439 -105 -24 -139 -27 -303 -28 -154 -1 -195 2
-243 18 -74 23 -144 70 -180 121 -49 69 -119 233 -106 247 1 2 -3 13 -9 24
-24 46 -35 287 -19 439 14 133 68 317 225 763 34 94 59 172 56 172 -3 0 -37
-26 -77 -57 -39 -32 -78 -63 -87 -70 -63 -49 -302 -251 -375 -317 -237 -213
-493 -472 -693 -701 -58 -66 -118 -135 -134 -153 -110 -124 -370 -464 -413
-539 -8 -15 -29 -50 -46 -78 -43 -71 -151 -297 -182 -380 -57 -153 -79 -270
-82 -429 -4 -267 101 -469 315 -599 263 -160 581 -264 870 -284 172 -12 466
-6 570 11 14 3 52 7 85 11 32 4 62 8 65 10 3 1 28 6 55 9 62 9 230 42 310 63
33 8 65 16 70 17 214 48 749 238 1127 400 553 237 1145 557 1658 895 47 31 90
58 95 61 13 7 200 132 290 195 39 27 83 58 100 69 16 12 36 27 43 34 7 6 23
17 35 24 55 29 627 460 807 607 19 16 60 48 90 72 30 23 61 48 70 55 46 37
207 170 216 179 7 5 31 26 55 45 40 32 422 359 479 409 14 12 39 34 55 48 34
30 184 163 201 178 6 6 46 42 89 80 377 339 874 833 1151 1145 22 25 56 62 75
84 19 21 45 50 59 65 52 57 260 304 345 411 33 41 63 77 66 80 5 5 213 277
252 331 447 614 734 1086 927 1524 85 191 142 343 209 557 21 68 86 321 95
368 2 14 7 36 10 50 3 14 8 36 10 50 3 14 9 48 14 75 6 28 13 74 17 104 4 30
9 63 11 75 19 100 27 517 11 646 -40 343 -157 606 -371 839 -82 89 -212 225
-262 272 -201 193 -501 356 -854 463 -70 21 -292 72 -350 80 -8 1 -26 5 -40 9
-14 3 -61 9 -105 12 -44 3 -105 8 -136 11 -52 6 -457 13 -462 8z"/>
<path d="M12135 14319 c-38 -4 -97 -10 -130 -14 -33 -3 -69 -8 -80 -10 -11 -3
-36 -7 -55 -10 -62 -9 -133 -22 -165 -31 -5 -2 -26 -6 -45 -9 -46 -8 -279 -72
-355 -97 -123 -41 -261 -90 -290 -103 -16 -7 -41 -16 -55 -20 -14 -4 -49 -18
-78 -31 -29 -13 -55 -24 -58 -24 -3 0 -24 -9 -47 -19 -23 -11 -84 -38 -136
-61 -161 -71 -451 -216 -691 -347 -144 -78 -570 -330 -570 -337 0 -2 37 5 83
15 83 19 103 22 192 35 28 3 59 8 70 10 28 5 229 17 290 17 65 0 287 -13 294
-17 3 -2 31 -7 62 -10 31 -4 67 -9 80 -11 13 -3 38 -8 54 -11 167 -29 459
-128 633 -213 56 -28 106 -51 110 -51 4 0 19 22 33 48 62 113 187 230 309 292
47 24 121 50 190 68 43 11 232 9 286 -3 141 -30 265 -97 369 -200 247 -242
297 -605 125 -897 -61 -103 -172 -213 -275 -273 -16 -10 -12 -21 43 -125 103
-194 173 -373 222 -564 l28 -109 193 194 c197 197 300 305 399 419 30 35 60
68 65 74 6 6 35 40 65 76 30 36 57 67 60 70 3 3 64 77 136 165 193 236 281
369 373 560 46 95 116 295 125 357 3 21 11 59 16 85 13 57 16 248 5 323 -36
256 -199 471 -452 599 -169 85 -429 157 -638 177 -27 3 -63 8 -80 10 -49 9
-635 11 -710 3z"/>
<path d="M11918 13165 c-2 -2 -28 -5 -58 -8 -67 -7 -99 -16 -173 -52 -82 -38
-211 -165 -169 -165 12 0 173 -121 270 -202 141 -120 345 -338 424 -454 13
-19 25 -34 28 -34 10 1 46 36 81 80 171 211 143 524 -62 703 -48 42 -139 94
-194 111 -23 7 -144 24 -147 21z"/>
<path d="M9887 12684 c-1 -1 -34 -4 -72 -8 -68 -6 -104 -11 -155 -21 -14 -3
-36 -8 -50 -10 -177 -33 -330 -87 -516 -181 -91 -46 -240 -136 -290 -177 -166
-133 -268 -231 -370 -357 -227 -280 -367 -596 -429 -965 -26 -155 -26 -462 0
-610 36 -204 69 -323 137 -485 169 -404 495 -773 863 -976 28 -15 64 -35 81
-44 81 -46 319 -138 396 -154 13 -3 32 -7 43 -10 117 -27 106 -28 168 9 32 19
61 35 63 35 3 0 10 4 17 10 7 5 84 57 172 116 240 160 494 355 785 603 212
181 271 234 558 496 136 124 416 393 618 591 159 157 143 122 129 289 -20 245
-97 511 -212 737 -51 100 -169 288 -210 333 -10 11 -34 40 -54 65 -88 107
-275 278 -394 357 -154 103 -342 198 -490 248 -152 51 -256 74 -460 101 -42 6
-322 12 -328 8z"/>
<path d="M7769 12072 c-25 -20 -94 -75 -153 -121 -59 -46 -113 -89 -119 -95
-7 -6 -57 -47 -111 -91 -55 -44 -127 -102 -161 -130 -136 -111 -551 -467 -709
-609 -163 -147 -180 -162 -206 -186 -15 -14 -68 -63 -119 -109 -408 -373 -924
-886 -1251 -1241 -126 -137 -126 -137 -196 -216 -410 -462 -704 -876 -754
-1063 -6 -25 -29 -70 -49 -100 -98 -146 -258 -429 -360 -636 -262 -533 -430
-1031 -491 -1455 -22 -158 -25 -197 -25 -400 0 -216 7 -325 26 -423 6 -28 13
-63 15 -77 80 -409 292 -762 624 -1042 155 -130 463 -304 625 -352 6 -2 17 -6
25 -9 8 -4 62 -20 120 -36 171 -48 278 -68 533 -96 215 -24 822 -24 944 -1 11
2 53 7 95 10 41 4 84 8 94 10 11 2 44 7 75 10 31 4 66 8 77 11 11 2 37 6 58 9
814 126 1742 456 2854 1013 687 344 1280 690 1985 1158 238 158 639 434 680
467 6 5 64 47 130 94 66 48 143 103 170 123 156 116 291 218 305 228 8 7 71
55 140 108 407 310 678 529 949 770 138 121 535 513 671 661 71 77 241 271
310 354 30 36 57 67 60 70 21 20 209 257 292 369 48 64 50 80 9 81 -12 0 -94
-71 -251 -216 -25 -23 -90 -81 -145 -129 -153 -134 -169 -148 -280 -242 -28
-23 -81 -68 -120 -100 -59 -50 -156 -128 -375 -304 -489 -392 -1236 -918
-1795 -1263 -60 -38 -126 -79 -145 -91 -37 -24 -153 -95 -205 -125 -16 -9 -75
-44 -130 -77 -100 -60 -398 -231 -510 -293 -33 -18 -76 -42 -95 -53 -19 -12
-66 -37 -105 -57 -38 -20 -101 -54 -140 -75 -137 -76 -334 -178 -615 -318
-353 -176 -532 -259 -915 -423 -534 -228 -1250 -444 -1750 -528 -90 -15 -227
-35 -275 -41 -30 -3 -71 -8 -90 -10 -19 -2 -57 -6 -85 -9 -234 -26 -516 -26
-735 0 -80 9 -271 55 -359 86 -560 197 -854 600 -854 1173 0 77 9 197 18 246
3 13 7 41 10 64 19 130 97 384 170 550 196 448 418 849 701 1267 89 131 334
465 366 499 7 8 31 37 53 64 47 59 199 238 299 350 93 105 603 615 731 731 55
50 117 106 137 125 l37 34 -19 80 c-21 85 -45 218 -55 300 -3 28 -8 70 -11 95
-6 51 -7 374 0 435 30 293 91 539 197 797 36 85 142 291 188 361 28 42 47 77
43 77 -4 -1 -28 -17 -53 -38z"/>
<path d="M13625 6679 c-4 -19 -29 -88 -56 -153 -88 -216 -202 -388 -369 -557
-122 -122 -144 -141 -265 -221 -145 -97 -301 -169 -484 -224 -8 -3 24 -23 70
-45 493 -239 895 -815 1068 -1534 18 -71 35 -143 40 -160 l8 -30 8 40 c4 22
20 94 37 160 143 577 425 1058 793 1350 93 73 184 135 201 135 6 0 15 5 22 12
6 6 39 23 72 38 l61 27 -107 37 c-264 91 -484 234 -682 440 -163 171 -299 395
-376 620 -32 94 -34 97 -41 65z"/>
</g>
</svg>
